<?xml version="1.0" encoding="UTF-8"?>
<svg xmlns="http://www.w3.org/2000/svg" xmlns:xlink="http://www.w3.org/1999/xlink" width="150px" height="113px" viewBox="0 0 150 113" version="1.1">
<g id="surface1">
<path style=" stroke:none;fill-rule:nonzero;fill:rgb(99.607843%,99.607843%,99.607843%);fill-opacity:1;" d="M 84.800781 29.632812 C 90.808594 28.226562 96.769531 26.59375 102.734375 25.046875 C 104.308594 24.660156 105.636719 25.820312 106.414062 27.066406 C 107.671875 29.136719 108.835938 31.269531 110.132812 33.320312 C 114.457031 31.511719 118.660156 29.425781 123.046875 27.746094 C 123.453125 30.863281 123.542969 34.050781 124.5625 37.058594 C 124.925781 38.429688 125.578125 39.710938 125.894531 41.09375 C 126.113281 41.898438 125.203125 42.144531 124.625 42.324219 C 121.582031 42.789062 118.5 42.796875 115.4375 43.027344 C 117.25 46.175781 119.121094 49.308594 121.070312 52.386719 C 122.523438 52.023438 123.984375 51.636719 125.464844 51.34375 C 131.210938 49.988281 137.519531 50.730469 142.589844 53.84375 C 143.601562 54.507812 144.75 55.089844 145.457031 56.109375 C 145.269531 56.433594 145.015625 56.710938 144.707031 56.921875 C 141.871094 58.972656 138.972656 60.941406 136.121094 62.972656 C 135.074219 63.792969 133.699219 63.03125 132.519531 63.40625 C 131.144531 63.777344 129.363281 64.609375 129.332031 66.253906 C 129.453125 67.816406 130.539062 69.0625 131.144531 70.453125 C 132.515625 73.347656 134.109375 76.128906 135.34375 79.078125 C 131.820312 74.3125 128.539062 69.375 125.503906 64.273438 C 120.273438 55.769531 115.277344 47.152344 110.082031 38.640625 C 109.6875 38.011719 109.320312 37.34375 109.207031 36.601562 C 108.953125 34.765625 107.621094 33.363281 106.808594 31.757812 C 105.9375 30.3125 105.054688 28.253906 103.0625 28.238281 C 100.640625 28.65625 98.371094 29.6875 96.03125 30.410156 C 92.609375 31.515625 89.253906 32.867188 85.761719 33.765625 C 85.21875 32.449219 84.445312 31.105469 84.800781 29.632812 Z M 84.800781 29.632812 "/>
<path style=" stroke:none;fill-rule:nonzero;fill:rgb(99.607843%,99.607843%,99.607843%);fill-opacity:1;" d="M 24.246094 61.46875 C 23.128906 56.148438 22.8125 54.304688 21.722656 48.976562 C 32.242188 46.894531 42.75 44.652344 53.285156 42.617188 C 54.445312 47.921875 54.722656 49.757812 55.871094 55.0625 C 45.347656 57.285156 34.792969 59.363281 24.246094 61.46875 Z M 24.246094 61.46875 "/>
<path style=" stroke:none;fill-rule:nonzero;fill:rgb(99.607843%,99.607843%,99.607843%);fill-opacity:1;" d="M 101.773438 31.554688 C 101.371094 30.589844 102.660156 30.605469 103.253906 30.382812 C 105.535156 34.121094 107.742188 37.917969 109.984375 41.6875 C 111.769531 44.808594 113.445312 47.984375 115.269531 51.078125 C 115.648438 51.679688 115.871094 52.5 115.417969 53.128906 C 114.898438 53.722656 114.214844 54.136719 113.636719 54.664062 C 108.820312 59.15625 105.613281 65.359375 104.871094 71.90625 C 104.691406 74.210938 103.441406 76.222656 102.183594 78.09375 C 98.527344 83.421875 92.738281 87.164062 86.421875 88.511719 C 79.546875 89.980469 72.636719 91.332031 65.757812 92.75 C 65.757812 97.652344 63.953125 102.550781 60.628906 106.183594 C 57.832031 109.324219 53.984375 111.4375 49.925781 112.484375 C 43.335938 114.054688 36.070312 111.960938 31.21875 107.273438 C 27.351562 103.605469 25.152344 98.445312 24.554688 93.207031 C 25.859375 93.304688 27.171875 93.289062 28.476562 93.167969 C 28.925781 97.1875 30.714844 100.9375 33.554688 103.824219 C 36.808594 107.195312 41.539062 109.140625 46.253906 108.917969 C 50.578125 108.699219 54.636719 106.785156 57.546875 103.589844 C 60.050781 100.828125 61.46875 97.214844 61.773438 93.523438 C 55.726562 94.765625 49.675781 95.984375 43.632812 97.222656 C 43.382812 95.957031 43.109375 94.691406 42.855469 93.441406 C 56.394531 90.726562 69.90625 87.914062 83.445312 85.203125 C 84.972656 84.949219 86.375 84.28125 87.78125 83.664062 C 92.734375 81.527344 97.050781 77.894531 99.796875 73.242188 C 102.351562 68.921875 104.160156 64.203125 105.144531 59.285156 C 106 54.878906 105.820312 50.351562 105.410156 45.902344 C 105.074219 43.199219 104.988281 40.476562 104.941406 37.761719 C 104.148438 35.566406 102.539062 33.753906 101.773438 31.554688 Z M 101.773438 31.554688 "/>
<path style=" stroke:none;fill-rule:nonzero;fill:rgb(99.607843%,99.607843%,99.607843%);fill-opacity:1;" d="M 57.007812 46.082031 C 64.976562 44.449219 72.949219 42.835938 80.929688 41.242188 C 81.527344 44.042969 82.054688 46.863281 82.628906 49.671875 C 74.730469 51.316406 66.816406 52.878906 58.910156 54.484375 C 58.058594 51.734375 57.625 48.882812 57.007812 46.082031 Z M 57.007812 46.082031 "/>
<path style=" stroke:none;fill-rule:nonzero;fill:rgb(99.607843%,99.607843%,99.607843%);fill-opacity:1;" d="M 82.765625 65.273438 C 85.308594 56.324219 92.765625 49.046875 101.671875 46.402344 C 102.839844 52.550781 102.816406 59.0625 100.425781 64.925781 C 98.339844 70.421875 94.503906 75.082031 89.503906 78.195312 C 87.382812 79.503906 85.0625 80.453125 82.695312 81.210938 C 81.816406 75.964844 81.273438 70.464844 82.765625 65.273438 Z M 82.765625 65.273438 "/>
<path style=" stroke:none;fill-rule:nonzero;fill:rgb(99.607843%,99.607843%,99.607843%);fill-opacity:1;" d="M 24.898438 64.691406 C 44.332031 60.65625 63.800781 56.816406 83.234375 52.78125 C 83.414062 53.585938 83.597656 54.386719 83.777344 55.195312 C 81.089844 57.824219 78.140625 60.390625 76.554688 63.875 C 75.605469 65.929688 75.703125 68.28125 76.125 70.453125 C 76.921875 74.296875 77.679688 78.148438 78.472656 81.992188 C 76.742188 82.40625 75.023438 82.878906 73.285156 83.234375 C 72.355469 80.773438 71.363281 78.316406 69.902344 76.113281 C 66.714844 71.210938 62.082031 67.1875 56.621094 65.003906 C 50.488281 62.507812 43.476562 62.519531 37.210938 64.554688 C 33.132812 65.871094 29.414062 68.117188 26.167969 70.894531 C 25.730469 68.835938 25.285156 66.769531 24.898438 64.691406 Z M 24.898438 64.691406 "/>
<path style=" stroke:none;fill-rule:nonzero;fill:rgb(99.607843%,99.607843%,99.607843%);fill-opacity:1;" d="M 34.191406 68.328125 C 36.847656 66.945312 39.816406 66.335938 42.753906 65.878906 C 49.167969 65.027344 55.9375 66.574219 61.175781 70.414062 C 65.3125 73.414062 68.503906 77.535156 70.367188 82.289062 C 70.691406 83.140625 70.992188 84.039062 70.957031 84.960938 C 66.464844 86.011719 61.902344 86.789062 57.382812 87.753906 C 51.226562 88.964844 45.085938 90.285156 38.914062 91.425781 C 37.320312 83.730469 35.78125 76.023438 34.191406 68.328125 Z M 34.191406 68.328125 "/>
<path style=" stroke:none;fill-rule:nonzero;fill:rgb(99.607843%,99.607843%,99.607843%);fill-opacity:1;" d="M 26.742188 73.683594 C 28.195312 72.367188 29.695312 70.972656 31.574219 70.292969 C 32.960938 76.835938 34.28125 83.394531 35.625 89.949219 C 32.753906 90.726562 29.761719 90.820312 26.8125 91.011719 C 24.015625 91.09375 21.1875 91.191406 18.414062 90.769531 C 18.945312 84.304688 22.042969 78.136719 26.742188 73.683594 Z M 26.742188 73.683594 "/>
<path style=" stroke:none;fill-rule:nonzero;fill:rgb(99.607843%,99.607843%,99.607843%);fill-opacity:1;" d="M 112.804688 59.835938 C 114.007812 58.386719 115.660156 57.445312 116.976562 56.132812 C 117.082031 56.210938 117.285156 56.375 117.390625 56.460938 C 122.390625 64.433594 127.035156 72.695312 133.121094 79.925781 C 134.511719 81.878906 136.480469 83.410156 137.59375 85.566406 C 136.269531 85.386719 135.246094 84.453125 134.148438 83.785156 C 129.792969 80.890625 126.710938 76.5625 123.878906 72.25 C 118.8125 75.613281 113.945312 79.300781 108.664062 82.34375 C 106.933594 78.207031 106.636719 73.609375 107.824219 69.285156 C 108.785156 65.816406 110.484375 62.59375 112.804688 59.835938 Z M 112.804688 59.835938 "/>
<path style=" stroke:none;fill-rule:nonzero;fill:rgb(100%,100%,100%);fill-opacity:1;" d="M 140.058594 62.71875 C 141.3125 62.054688 142.292969 60.804688 143.675781 60.449219 C 150.15625 66.417969 151.835938 76.804688 147.875 84.621094 C 145.15625 90.226562 139.496094 94.105469 133.433594 95.320312 C 129.578125 96 125.496094 95.609375 121.925781 93.972656 C 117.824219 92.210938 114.429688 88.957031 112.285156 85.078125 C 111.851562 84.3125 111.519531 83.492188 111.296875 82.640625 C 112.359375 82.070312 113.417969 81.488281 114.535156 81.011719 C 116.453125 85.566406 120.316406 89.351562 125.089844 90.824219 C 129.625 92.316406 134.808594 91.558594 138.78125 88.945312 C 145.355469 84.820312 147.8125 75.609375 144.53125 68.664062 C 143.515625 66.371094 141.902344 64.394531 140.058594 62.71875 Z M 140.058594 62.71875 "/>
<path style=" stroke:none;fill-rule:nonzero;fill:rgb(100%,100%,100%);fill-opacity:1;" d="M 37.054688 0.0625 C 37.53125 0.0078125 38.011719 -0.0117188 38.492188 0.0078125 C 38.523438 0.507812 38.53125 1.011719 38.515625 1.519531 C 38.5 3.375 38.515625 5.234375 38.492188 7.09375 C 38.03125 7.0625 37.570312 7.015625 37.117188 6.976562 C 37.054688 4.671875 37.199219 2.363281 37.054688 0.0625 Z M 37.054688 0.0625 "/>
<path style=" stroke:none;fill-rule:nonzero;fill:rgb(87.843137%,3.529412%,7.843137%);fill-opacity:1;" d="M 14.972656 15.425781 C 17.441406 14.078125 19.910156 12.710938 22.460938 11.53125 C 22.773438 12.359375 23.273438 13.136719 24.046875 13.605469 C 23.140625 14.109375 22.089844 13.632812 21.144531 14.015625 C 21.558594 14.765625 22.539062 14.902344 22.96875 15.640625 C 21.695312 16.339844 20.191406 16.546875 18.996094 17.382812 C 18.027344 18.164062 17.726562 19.421875 17.542969 20.59375 C 17.257812 19.96875 16.742188 19.375 16.820312 18.644531 C 16.789062 17.980469 17.132812 17.394531 17.507812 16.875 C 17.253906 16.789062 17.023438 16.660156 16.78125 16.550781 C 16.394531 16.65625 16.023438 16.804688 15.675781 17 C 15.496094 16.449219 15.261719 15.921875 14.972656 15.425781 Z M 14.972656 15.425781 "/>
<path style=" stroke:none;fill-rule:nonzero;fill:rgb(87.843137%,3.529412%,7.843137%);fill-opacity:1;" d="M 37.476562 12.949219 C 37.90625 12.394531 38.375 11.75 39.109375 11.621094 C 40.292969 11.28125 41.476562 12.113281 42.011719 13.121094 C 42.28125 13.820312 42.367188 14.578125 42.269531 15.320312 C 41.199219 13.777344 39.296875 13.085938 37.476562 12.949219 Z M 37.476562 12.949219 "/>
<path style=" stroke:none;fill-rule:nonzero;fill:rgb(87.843137%,3.529412%,7.843137%);fill-opacity:1;" d="M 33.492188 13.59375 C 34.136719 13.734375 34.800781 13.753906 35.449219 13.65625 C 35.964844 13.601562 36.433594 13.351562 36.941406 13.277344 C 37.742188 13.539062 38.460938 14.007812 39.023438 14.632812 C 37.949219 15.09375 36.832031 15.46875 35.828125 16.078125 C 35.5 16.375 35.222656 16.722656 35.007812 17.109375 C 34.765625 17.011719 34.539062 16.878906 34.335938 16.71875 C 34.570312 15.851562 35.082031 15.09375 35.582031 14.367188 C 34.882812 14.535156 34.402344 15.09375 34.011719 15.660156 C 33.789062 14.976562 33.640625 14.285156 33.492188 13.59375 Z M 33.492188 13.59375 "/>
<path style=" stroke:none;fill-rule:nonzero;fill:rgb(87.843137%,3.529412%,7.843137%);fill-opacity:1;" d="M 10.027344 20.949219 C 10.234375 20.835938 10.445312 20.714844 10.648438 20.589844 C 11.441406 21.097656 12.121094 21.765625 12.644531 22.546875 C 12.667969 22.652344 12.710938 22.867188 12.730469 22.972656 C 12.164062 22.625 11.5625 22.152344 10.847656 22.347656 C 10.382812 22.386719 10.164062 22.84375 9.902344 23.160156 C 10.648438 23.402344 11.570312 23.523438 11.945312 24.3125 C 10.84375 24.886719 9.71875 25.460938 8.863281 26.371094 C 8.191406 27.015625 7.882812 27.933594 7.804688 28.839844 C 7.894531 29.484375 8.285156 30.054688 8.304688 30.710938 C 7.835938 30.242188 7.457031 29.640625 6.820312 29.378906 C 6.386719 29.148438 5.882812 29.21875 5.417969 29.289062 L 5.375 29.035156 C 5.601562 28.621094 5.765625 28.175781 5.859375 27.714844 C 5.910156 27.265625 5.707031 26.839844 5.527344 26.449219 C 4.984375 26.847656 4.773438 27.484375 4.585938 28.09375 C 4.242188 27.730469 3.738281 27.472656 3.527344 27.007812 C 3.8125 26.285156 4.285156 25.660156 4.480469 24.90625 L 4.75 24.726562 C 5.226562 24.753906 5.707031 24.75 6.1875 24.800781 L 6.289062 24.621094 C 6.347656 24.113281 6.558594 23.632812 6.894531 23.246094 C 7.777344 22.285156 8.839844 21.503906 10.027344 20.949219 Z M 10.027344 20.949219 "/>
<path style=" stroke:none;fill-rule:nonzero;fill:rgb(87.843137%,3.529412%,7.843137%);fill-opacity:1;" d="M 50.332031 11.707031 C 52.144531 11.640625 54.085938 11.691406 55.6875 12.640625 C 56.101562 12.890625 56.449219 13.234375 56.707031 13.644531 C 57.242188 13.398438 57.734375 13.074219 58.261719 12.816406 C 58.941406 13.398438 59.652344 13.941406 60.394531 14.445312 C 60.148438 14.894531 60.0625 15.472656 59.699219 15.832031 C 59.304688 15.464844 58.878906 15.128906 58.429688 14.828125 C 58.167969 15.527344 58.492188 16.355469 59.074219 16.785156 C 59.285156 16.96875 59.617188 17.089844 59.636719 17.425781 C 59.078125 17.605469 58.480469 17.730469 58.09375 18.214844 C 57.859375 18.707031 57.660156 19.214844 57.5 19.738281 L 57.320312 19.804688 C 57.273438 19.023438 57.46875 18.175781 56.933594 17.5 C 56.558594 17.105469 56.183594 16.703125 55.703125 16.441406 C 54.519531 15.792969 53.152344 15.683594 51.84375 15.511719 C 51.617188 15.46875 51.390625 15.429688 51.171875 15.382812 C 51.171875 14.554688 52.078125 14.210938 52.441406 13.558594 C 51.734375 13.199219 50.734375 13.234375 50.21875 13.894531 C 49.960938 14.1875 49.898438 14.789062 49.386719 14.667969 C 49.601562 13.660156 50.019531 12.699219 50.332031 11.707031 Z M 50.332031 11.707031 "/>
<path style=" stroke:none;fill-rule:nonzero;fill:rgb(87.843137%,3.529412%,7.843137%);fill-opacity:1;" d="M 21.597656 21.304688 C 22.214844 20.558594 22.617188 19.585938 23.496094 19.097656 C 24.328125 18.707031 25.246094 19.027344 26.070312 19.277344 C 25.242188 20.011719 24.300781 20.609375 23.40625 21.265625 C 22.574219 21.875 22.414062 23.027344 21.511719 23.578125 L 20.84375 23.722656 C 20.476562 23.660156 20.132812 23.507812 19.84375 23.277344 C 19.804688 23.035156 19.777344 22.800781 19.75 22.554688 C 20.363281 22.152344 21.117188 21.898438 21.597656 21.304688 Z M 21.597656 21.304688 "/>
<path style=" stroke:none;fill-rule:nonzero;fill:rgb(87.843137%,3.529412%,7.843137%);fill-opacity:1;" d="M 34.136719 21.542969 C 33.824219 19.289062 35.511719 16.964844 37.765625 16.578125 C 39.089844 16.503906 40.40625 16.792969 41.574219 17.417969 C 41.65625 17.445312 41.730469 17.492188 41.789062 17.554688 C 41.847656 17.617188 41.890625 17.691406 41.910156 17.777344 C 41.933594 17.859375 41.933594 17.945312 41.914062 18.03125 C 41.890625 18.113281 41.851562 18.191406 41.792969 18.253906 C 41.355469 18.796875 40.597656 18.492188 40.011719 18.648438 C 39.019531 18.742188 38.304688 19.480469 37.507812 19.984375 C 36.484375 20.703125 35.238281 20.96875 34.136719 21.542969 Z M 34.136719 21.542969 "/>
<path style=" stroke:none;fill-rule:nonzero;fill:rgb(87.843137%,3.529412%,7.843137%);fill-opacity:1;" d="M 22.6875 23.324219 C 23.386719 22.195312 24.542969 21.207031 25.9375 21.214844 C 27.386719 21.203125 28.632812 22.398438 28.914062 23.777344 C 28.1875 23.4375 27.375 23.167969 26.558594 23.3125 C 25.210938 23.464844 24.164062 24.414062 23.234375 25.3125 C 22.246094 26.300781 21.390625 27.613281 21.539062 29.070312 C 20.933594 28.136719 20.488281 26.960938 20.898438 25.859375 C 21.167969 24.808594 22.160156 24.21875 22.6875 23.324219 Z M 22.6875 23.324219 "/>
<path style=" stroke:none;fill-rule:nonzero;fill:rgb(87.843137%,3.529412%,7.843137%);fill-opacity:1;" d="M 38.921875 19.765625 C 39.632812 19.496094 40.425781 19.273438 41.175781 19.527344 C 42.15625 19.820312 43.101562 20.46875 43.496094 21.445312 C 43.765625 22.171875 43.636719 22.960938 43.644531 23.71875 C 43.25 23.109375 42.90625 22.441406 42.335938 21.96875 C 41.988281 21.71875 41.625 21.492188 41.246094 21.285156 C 40.75 21.105469 40.160156 20.925781 39.6875 21.246094 C 39.390625 21.53125 39.28125 21.9375 39.144531 22.308594 C 36.894531 22.261719 35.152344 24.273438 34.738281 26.34375 C 34.320312 25.980469 34.601562 25.390625 34.363281 24.949219 C 34.027344 24.261719 33.5 23.6875 32.851562 23.28125 C 33.898438 22.199219 35.378906 21.65625 36.832031 21.355469 C 37.777344 21.214844 38.253906 20.324219 38.921875 19.765625 Z M 38.921875 19.765625 "/>
<path style=" stroke:none;fill-rule:nonzero;fill:rgb(87.843137%,3.529412%,7.843137%);fill-opacity:1;" d="M 25.300781 25.257812 C 26.296875 24.40625 27.699219 24.355469 28.929688 24.535156 C 29.449219 24.433594 29.964844 24.320312 30.476562 24.203125 C 30.152344 24.714844 29.863281 25.25 29.617188 25.804688 C 29.800781 26.292969 29.894531 26.804688 29.605469 27.273438 C 28.964844 26.75 28.214844 26.320312 27.382812 26.21875 C 26.71875 26.105469 26.066406 26.332031 25.453125 26.539062 C 25.125 26.75 24.800781 26.953125 24.460938 27.128906 C 24.261719 26.398438 24.785156 25.71875 25.300781 25.257812 Z M 25.300781 25.257812 "/>
<path style=" stroke:none;fill-rule:nonzero;fill:rgb(87.843137%,3.529412%,7.843137%);fill-opacity:1;" d="M 41.066406 23.828125 C 41.011719 23.679688 41.003906 23.515625 41.042969 23.363281 C 41.078125 23.207031 41.164062 23.070312 41.285156 22.964844 C 41.875 23.03125 42.417969 23.320312 42.808594 23.769531 C 43.195312 24.21875 43.402344 24.800781 43.378906 25.390625 C 42.644531 24.820312 41.871094 24.300781 41.066406 23.828125 Z M 41.066406 23.828125 "/>
<path style=" stroke:none;fill-rule:nonzero;fill:rgb(87.843137%,3.529412%,7.843137%);fill-opacity:1;" d="M 25.988281 27.527344 C 26.570312 27.34375 27.195312 27.136719 27.800781 27.296875 C 28.289062 27.394531 28.707031 27.683594 29.132812 27.917969 L 28.964844 28.144531 C 28.386719 28.644531 27.664062 28.878906 26.921875 28.992188 C 27.910156 29.625 29.132812 29.125 30.1875 29.492188 C 31.300781 29.785156 32.097656 30.777344 32.320312 31.882812 C 31.453125 31.242188 30.324219 30.722656 29.238281 31.050781 C 27.363281 31.59375 25.988281 33.351562 25.664062 35.238281 L 25.605469 35.011719 L 25.480469 35.03125 C 24.953125 34.5 24.515625 33.6875 24.851562 32.941406 C 25.15625 32.101562 25.984375 31.644531 26.457031 30.917969 C 26.09375 30.878906 25.75 30.863281 25.398438 30.84375 C 24.699219 30.957031 24 31.101562 23.292969 31.070312 C 23.777344 29.902344 24.980469 29.335938 25.707031 28.359375 C 25.902344 28.121094 25.910156 27.804688 25.988281 27.527344 Z M 25.988281 27.527344 "/>
<path style=" stroke:none;fill-rule:nonzero;fill:rgb(87.843137%,3.529412%,7.843137%);fill-opacity:1;" d="M 51.71875 28.203125 C 51.238281 27.757812 50.40625 27.253906 50.757812 26.484375 C 52.570312 26.070312 54.566406 27.609375 54.457031 29.507812 C 54.457031 29.632812 54.457031 29.871094 54.449219 30 C 53.390625 29.652344 52.515625 28.953125 51.71875 28.203125 Z M 51.71875 28.203125 "/>
<path style=" stroke:none;fill-rule:nonzero;fill:rgb(87.843137%,3.529412%,7.843137%);fill-opacity:1;" d="M 35.601562 32.097656 C 35.9375 31.320312 36.542969 30.691406 37.308594 30.324219 C 37.847656 30.164062 38.421875 30.144531 38.96875 30.265625 C 39.519531 30.386719 40.027344 30.644531 40.449219 31.015625 C 41.214844 31.679688 41.789062 32.527344 42.351562 33.367188 C 42.414062 33.5625 42.46875 33.753906 42.535156 33.953125 C 42.324219 33.832031 42.113281 33.714844 41.898438 33.601562 C 41.222656 33.261719 40.609375 32.8125 39.953125 32.429688 C 39.847656 32.609375 39.742188 32.792969 39.636719 32.972656 C 39.636719 33.640625 40.164062 34.128906 40.769531 34.308594 C 41.679688 34.640625 42.660156 34.667969 43.59375 34.910156 C 42.957031 35.621094 42.066406 36.050781 41.113281 36.113281 C 40.042969 36.167969 38.976562 36.085938 37.929688 35.867188 C 37.941406 35.816406 37.96875 35.710938 37.984375 35.660156 C 38.402344 35.109375 38.664062 34.285156 38.210938 33.671875 C 37.644531 32.753906 36.613281 32.292969 35.601562 32.097656 Z M 35.601562 32.097656 "/>
<path style=" stroke:none;fill-rule:nonzero;fill:rgb(87.843137%,3.529412%,7.843137%);fill-opacity:1;" d="M 27.984375 33.144531 C 28.476562 32.613281 29.132812 32.253906 29.84375 32.125 C 30.210938 32.0625 30.585938 32.101562 30.929688 32.234375 C 31.273438 32.371094 31.578125 32.597656 31.800781 32.886719 C 31.304688 33.109375 30.871094 33.453125 30.542969 33.886719 C 30.214844 34.320312 30 34.828125 29.917969 35.367188 C 29.921875 35.535156 29.964844 35.699219 30.050781 35.84375 C 30.132812 35.988281 30.25 36.113281 30.394531 36.199219 C 30.808594 36.273438 31.210938 36.066406 31.617188 35.996094 C 31.871094 36.667969 31.382812 37.308594 30.890625 37.707031 C 29.898438 38.457031 28.578125 39.035156 27.339844 38.582031 C 28.046875 37.96875 28.699219 37.171875 28.800781 36.210938 C 28.847656 35.765625 28.640625 35.351562 28.484375 34.945312 C 28.484375 35.011719 28.46875 35.148438 28.464844 35.214844 L 28.339844 35.214844 C 28.078125 35.851562 27.683594 36.425781 27.488281 37.089844 L 27.273438 37.078125 C 26.820312 36.65625 27.058594 36.074219 27.09375 35.550781 C 27.289062 34.71875 27.363281 33.785156 27.984375 33.144531 Z M 27.984375 33.144531 "/>
<path style=" stroke:none;fill-rule:nonzero;fill:rgb(87.843137%,3.529412%,7.843137%);fill-opacity:1;" d="M 19.78125 36.980469 C 20.828125 36.0625 21.992188 35.210938 23.347656 34.8125 C 24.464844 35.207031 25.03125 36.425781 24.941406 37.550781 C 24.738281 38.605469 23.839844 39.300781 23.375 40.226562 C 23.160156 40.484375 23.507812 40.707031 23.628906 40.90625 C 24.144531 40.378906 24.722656 39.921875 25.355469 39.539062 C 25.867188 39.359375 26.398438 39.21875 26.933594 39.121094 C 27.460938 39.023438 27.945312 39.300781 28.398438 39.527344 C 28.417969 39.605469 28.453125 39.757812 28.46875 39.832031 L 28.289062 39.71875 C 26.914062 39.6875 25.582031 40.171875 24.554688 41.078125 C 23.554688 41.84375 22.949219 42.996094 22.527344 44.15625 C 22.644531 44.375 22.765625 44.59375 22.890625 44.8125 C 23.1875 44.714844 23.472656 44.582031 23.742188 44.417969 C 24.023438 44.199219 24.070312 43.824219 24.179688 43.515625 C 24.335938 42.914062 24.75 42.441406 25.121094 41.964844 C 25.414062 41.699219 25.714844 41.441406 26.027344 41.203125 C 26.492188 40.9375 26.996094 40.75 27.519531 40.640625 C 26.972656 41.609375 26.328125 42.519531 25.820312 43.507812 C 25.476562 44.175781 24.914062 44.675781 24.332031 45.136719 C 23.597656 45.554688 22.730469 45.890625 21.875 45.679688 C 21.410156 45.488281 20.925781 45.210938 20.691406 44.746094 C 20.390625 44 20.839844 43.265625 21.039062 42.558594 C 20.769531 42.421875 20.292969 42.46875 20.273438 42.070312 C 20.195312 41.710938 20.1875 41.339844 20.25 40.976562 C 20.316406 40.617188 20.453125 40.269531 20.652344 39.960938 C 21.265625 38.925781 22.285156 38.214844 22.980469 37.25 C 22.957031 37.167969 22.914062 37.007812 22.890625 36.929688 C 21.378906 37.402344 19.945312 38.433594 19.308594 39.917969 C 19.105469 40.394531 18.964844 40.894531 18.886719 41.40625 C 18.308594 40.96875 17.769531 40.476562 17.285156 39.941406 C 17.984375 38.847656 18.820312 37.855469 19.78125 36.980469 Z M 19.78125 36.980469 "/>
<path style=" stroke:none;fill-rule:nonzero;fill:rgb(87.843137%,3.529412%,7.843137%);fill-opacity:1;" d="M 45.519531 33.363281 C 44.601562 32.460938 44.445312 30.847656 45.292969 29.835938 C 45.785156 29.71875 46.296875 29.835938 46.796875 29.847656 C 48.835938 30.054688 50.824219 30.613281 52.675781 31.492188 C 52.839844 31.617188 53.167969 31.675781 53.144531 31.941406 C 53.023438 32.53125 52.78125 33.085938 52.609375 33.664062 L 52.429688 33.652344 C 51.054688 31.992188 48.75 31.335938 46.660156 31.484375 C 46.84375 31.878906 47.296875 31.976562 47.667969 32.125 C 48.679688 32.484375 49.769531 32.761719 50.609375 33.464844 C 51.171875 33.933594 51.421875 34.640625 51.730469 35.273438 C 51.578125 35.453125 51.417969 35.625 51.257812 35.792969 C 51.949219 36.226562 52.5 36.941406 52.449219 37.800781 C 52.269531 38.671875 51.453125 39.289062 50.609375 39.472656 C 49.597656 39.636719 48.566406 39.421875 47.707031 38.871094 C 46.679688 38.1875 45.554688 37.648438 44.59375 36.871094 C 45.871094 36.546875 47.324219 36.773438 48.363281 37.605469 C 48.691406 37.863281 48.957031 38.203125 49.320312 38.417969 C 49.726562 38.601562 50.1875 38.542969 50.621094 38.503906 C 50.582031 38.160156 50.5625 37.777344 50.265625 37.546875 C 49.003906 36.425781 47.367188 35.820312 45.675781 35.847656 C 44.808594 35.894531 43.992188 36.199219 43.164062 36.421875 C 43.84375 35.464844 45.050781 35.0625 46.191406 35.082031 C 46.839844 35.160156 47.484375 35.289062 48.140625 35.34375 C 48.089844 35.160156 48.042969 34.980469 47.996094 34.800781 C 47.21875 34.242188 46.234375 34.027344 45.519531 33.363281 Z M 45.519531 33.363281 "/>
<path style=" stroke:none;fill-rule:nonzero;fill:rgb(100%,100%,100%);fill-opacity:1;" d="M 45.816406 38.703125 C 46.226562 38.835938 46.632812 38.972656 47.039062 39.113281 C 46.277344 41.761719 45.300781 44.355469 44.5 46.988281 C 44.355469 47.300781 44.359375 47.746094 44.046875 47.941406 C 43.6875 47.816406 43.128906 47.808594 42.984375 47.421875 C 43.898438 44.507812 44.816406 41.589844 45.816406 38.703125 Z M 45.816406 38.703125 "/>
<path style=" stroke:none;fill-rule:nonzero;fill:rgb(99.607843%,99.607843%,99.607843%);fill-opacity:1;" d="M 14.777344 6.671875 C 15.167969 6.453125 15.582031 6.277344 16.011719 6.148438 C 16.921875 8.15625 17.972656 10.105469 18.914062 12.117188 C 18.519531 12.296875 18.132812 12.5 17.730469 12.667969 C 17.050781 11.53125 16.558594 10.304688 15.964844 9.125 C 15.5625 8.304688 15.121094 7.511719 14.777344 6.671875 Z M 14.777344 6.671875 "/>
<path style=" stroke:none;fill-rule:nonzero;fill:rgb(87.843137%,3.529412%,7.843137%);fill-opacity:1;" d="M 11.324219 25.183594 C 12.121094 24.738281 12.984375 24.425781 13.882812 24.265625 C 14.195312 24.925781 14.691406 25.484375 14.953125 26.171875 C 14.375 26.488281 13.777344 26.101562 13.175781 26.171875 C 12.304688 26.222656 11.484375 26.597656 10.757812 27.054688 C 10.273438 27.417969 9.878906 27.882812 9.59375 28.414062 C 9.308594 28.945312 9.144531 29.535156 9.109375 30.136719 L 8.824219 29.933594 C 8.582031 29.5 8.335938 29.007812 8.472656 28.5 C 8.753906 26.972656 10.023438 25.882812 11.324219 25.183594 Z M 11.324219 25.183594 "/>
<path style=" stroke:none;fill-rule:nonzero;fill:rgb(87.843137%,3.529412%,7.843137%);fill-opacity:1;" d="M 12.003906 28.925781 C 13.539062 27.726562 15.511719 27.167969 17.445312 27.140625 C 18.085938 27.511719 18.660156 27.988281 19.140625 28.554688 C 17.363281 28.253906 15.574219 28.847656 14.117188 29.851562 C 12.652344 30.902344 11.324219 32.425781 11.175781 34.292969 C 10.625 33.761719 10.136719 33.167969 9.722656 32.523438 C 10.054688 31.234375 10.695312 30.011719 11.742188 29.15625 Z M 12.003906 28.925781 "/>
<path style=" stroke:none;fill-rule:nonzero;fill:rgb(87.843137%,3.529412%,7.843137%);fill-opacity:1;" d="M 47.53125 20.507812 C 49.207031 19.769531 51.089844 19.339844 52.914062 19.695312 C 54.511719 19.964844 55.972656 20.875 57.054688 22.046875 C 56.964844 22.847656 56.613281 23.609375 56.453125 24.398438 C 55.242188 22.359375 52.808594 21.402344 50.519531 21.375 C 49.09375 21.300781 47.707031 21.773438 46.527344 22.550781 L 46.671875 22.007812 C 46.921875 21.5 47.097656 20.910156 47.53125 20.507812 Z M 47.53125 20.507812 "/>
<path style=" stroke:none;fill-rule:nonzero;fill:rgb(99.607843%,99.607843%,99.607843%);fill-opacity:1;" d="M 31.28125 39.003906 C 31.59375 38.835938 31.921875 38.695312 32.257812 38.582031 C 32.582031 39.445312 33.054688 40.238281 33.433594 41.078125 C 34.703125 43.847656 36.054688 46.585938 37.367188 49.34375 C 36.992188 49.433594 36.621094 49.515625 36.25 49.589844 C 34.433594 46.140625 32.878906 42.558594 31.28125 39.003906 Z M 31.28125 39.003906 "/>
<path style=" stroke:none;fill-rule:nonzero;fill:rgb(87.843137%,3.529412%,7.843137%);fill-opacity:1;" d="M 33.558594 8.386719 C 34.96875 8.25 36.390625 8.339844 37.808594 8.359375 C 39.226562 8.421875 40.648438 8.429688 42.058594 8.601562 C 42.101562 9.230469 42.113281 9.859375 42.09375 10.492188 C 41.089844 10.429688 40.101562 10.707031 39.140625 10.957031 C 38.25 11.179688 37.53125 11.769531 36.796875 12.289062 C 36.023438 12.703125 35.171875 12.941406 34.296875 12.988281 C 34.425781 12.058594 34.757812 11.179688 35.035156 10.289062 C 34.488281 10.289062 33.933594 10.300781 33.386719 10.289062 C 33.480469 9.65625 33.523438 9.019531 33.558594 8.386719 Z M 33.558594 8.386719 "/>
<path style=" stroke:none;fill-rule:nonzero;fill:rgb(100%,100%,100%);fill-opacity:1;" d="M 56.613281 8.976562 C 57.09375 7.519531 57.574219 6.054688 58.113281 4.617188 C 58.515625 4.785156 58.925781 4.941406 59.332031 5.109375 C 59.210938 5.460938 59.097656 5.8125 58.96875 6.160156 C 58.308594 8.152344 57.675781 10.140625 56.976562 12.105469 C 56.574219 11.957031 56.175781 11.796875 55.777344 11.648438 C 56.007812 10.742188 56.285156 9.851562 56.613281 8.976562 Z M 56.613281 8.976562 "/>
<path style=" stroke:none;fill-rule:nonzero;fill:rgb(100%,100%,100%);fill-opacity:1;" d="M 0.660156 18.199219 C 0.980469 17.875 1.292969 17.546875 1.628906 17.242188 C 2.9375 18.613281 4.230469 19.996094 5.558594 21.351562 C 5.921875 21.734375 6.238281 22.152344 6.679688 22.4375 C 6.273438 22.644531 5.996094 23.015625 5.664062 23.316406 C 3.996094 21.609375 2.261719 19.96875 0.660156 18.199219 Z M 0.660156 18.199219 "/>
<path style=" stroke:none;fill-rule:nonzero;fill:rgb(87.843137%,3.529412%,7.843137%);fill-opacity:1;" d="M 17.710938 21.246094 C 18.15625 20.136719 18.835938 19.132812 19.699219 18.304688 C 20.5625 17.476562 21.589844 16.839844 22.71875 16.4375 C 23.480469 16.226562 24.28125 15.996094 25.078125 16.183594 C 25.28125 16.890625 25.320312 17.632812 25.484375 18.355469 C 25.367188 18.3125 25.253906 18.265625 25.144531 18.214844 C 22.714844 17.492188 19.925781 19 19.085938 21.359375 C 18.964844 21.878906 18.90625 22.40625 18.90625 22.9375 C 18.523438 22.34375 18.097656 21.804688 17.710938 21.246094 Z M 17.710938 21.246094 "/>
<path style=" stroke:none;fill-rule:nonzero;fill:rgb(87.843137%,3.529412%,7.843137%);fill-opacity:1;" d="M 49.605469 16.097656 C 50.953125 16 52.328125 15.878906 53.644531 16.277344 C 54.757812 16.636719 55.960938 17.152344 56.558594 18.214844 C 56.859375 18.632812 56.617188 19.152344 56.558594 19.601562 C 56.078125 19.132812 55.714844 18.535156 55.121094 18.191406 C 54.015625 17.441406 52.601562 17.320312 51.308594 17.542969 C 50.671875 17.738281 49.996094 17.957031 49.574219 18.503906 L 49.082031 18.421875 C 49.21875 17.644531 49.402344 16.867188 49.605469 16.097656 Z M 49.605469 16.097656 "/>
<path style=" stroke:none;fill-rule:nonzero;fill:rgb(87.843137%,3.529412%,7.843137%);fill-opacity:1;" d="M 48.3125 23.15625 C 49.15625 22.800781 50.070312 22.628906 50.988281 22.65625 C 51.902344 22.679688 52.804688 22.898438 53.628906 23.296875 C 54.71875 23.8125 55.59375 24.925781 55.601562 26.152344 C 55.546875 26.589844 55.445312 27.019531 55.308594 27.4375 C 54.332031 26.070312 52.707031 25.304688 51.058594 25.164062 C 50.878906 25.164062 50.695312 25.140625 50.527344 25.125 C 49.136719 25.074219 47.683594 25.519531 46.789062 26.628906 C 46.605469 25.96875 46.410156 25.246094 46.714844 24.589844 C 46.964844 23.867188 47.671875 23.484375 48.3125 23.15625 Z M 48.3125 23.15625 "/>
<path style=" stroke:none;fill-rule:nonzero;fill:rgb(87.843137%,3.529412%,7.843137%);fill-opacity:1;" d="M 14.136719 31.308594 C 14.824219 30.730469 15.625 30.3125 16.492188 30.074219 C 17.359375 29.835938 18.265625 29.789062 19.152344 29.933594 C 19.738281 30.0625 20.191406 30.492188 20.535156 30.964844 C 20.671875 31.421875 20.78125 31.890625 20.855469 32.363281 C 19.9375 31.96875 18.914062 31.886719 17.941406 32.136719 C 15.871094 32.84375 13.8125 34.425781 13.476562 36.710938 C 13.011719 36.242188 12.488281 35.730469 12.417969 35.039062 C 12.128906 33.578125 13.066406 32.207031 14.136719 31.308594 Z M 14.136719 31.308594 "/>
<path style=" stroke:none;fill-rule:nonzero;fill:rgb(87.843137%,3.529412%,7.843137%);fill-opacity:1;" d="M 16.917969 33.804688 C 17.113281 33.6875 17.304688 33.898438 17.492188 33.9375 C 17.878906 35.410156 16.503906 36.511719 16.316406 37.886719 C 15.867188 38.125 15.445312 38.402344 15.046875 38.71875 C 15.011719 37.753906 14.640625 36.75 15.03125 35.808594 C 15.316406 34.886719 16.132812 34.304688 16.917969 33.804688 Z M 16.917969 33.804688 "/>
<path style=" stroke:none;fill-rule:nonzero;fill:rgb(87.843137%,3.529412%,7.843137%);fill-opacity:1;" d="M 48.558594 26.628906 C 48.90625 26.539062 49.277344 26.539062 49.625 26.628906 C 49.773438 27.277344 49.824219 27.996094 50.304688 28.511719 C 50.863281 29.320312 51.875 29.519531 52.707031 29.9375 C 52.6875 30.132812 52.667969 30.328125 52.644531 30.527344 C 51.414062 30.175781 50.164062 29.84375 49.019531 29.246094 C 48.566406 29.027344 48.148438 28.738281 47.667969 28.578125 C 47.105469 28.398438 46.503906 28.398438 45.933594 28.253906 C 46.574219 28.109375 47.199219 27.894531 47.796875 27.617188 C 48.105469 27.335938 48.363281 27 48.558594 26.628906 Z M 48.558594 26.628906 "/>
<path style=" stroke:none;fill-rule:nonzero;fill:rgb(87.843137%,3.529412%,7.843137%);fill-opacity:1;" d="M 18.347656 33.46875 C 18.710938 33.390625 19.097656 33.261719 19.472656 33.378906 C 20.226562 33.578125 21.007812 33.75 21.792969 33.609375 C 20.898438 34.363281 20.058594 35.195312 19.449219 36.199219 C 18.796875 36.980469 18.140625 37.789062 17.328125 38.410156 C 17.273438 38.226562 17.226562 38.046875 17.175781 37.867188 C 17.746094 37.058594 18.566406 36.382812 18.742188 35.355469 C 18.65625 34.71875 18.523438 34.085938 18.347656 33.46875 Z M 18.347656 33.46875 "/>
<path style=" stroke:none;fill-rule:nonzero;fill:rgb(87.843137%,3.529412%,7.843137%);fill-opacity:1;" d="M 31.175781 35.195312 C 31.226562 34.746094 31.421875 34.328125 31.730469 34.003906 C 32.042969 33.679688 32.453125 33.464844 32.898438 33.398438 C 32.9375 33.730469 32.902344 34.0625 32.804688 34.378906 C 32.707031 34.699219 32.546875 34.992188 32.332031 35.246094 C 31.945312 35.253906 31.5625 35.238281 31.175781 35.195312 Z M 31.175781 35.195312 "/>
<path style=" stroke:none;fill-rule:nonzero;fill:rgb(87.843137%,3.529412%,7.843137%);fill-opacity:1;" d="M 33.246094 35.789062 C 33.894531 35.34375 34.71875 35.308594 35.46875 35.160156 C 35.84375 35.394531 36.1875 35.679688 36.492188 35.996094 C 36.257812 36.085938 36.035156 36.210938 35.835938 36.359375 C 34.800781 36.195312 33.824219 36.722656 32.910156 37.125 L 32.636719 37 C 32.75 36.5625 32.839844 36.058594 33.246094 35.789062 Z M 33.246094 35.789062 "/>
<path style=" stroke:none;fill-rule:nonzero;fill:rgb(100%,100%,100%);fill-opacity:1;" d="M 37.289062 37.101562 C 37.847656 37.132812 38.558594 36.941406 38.917969 37.488281 C 38.664062 38.167969 38.652344 38.902344 38.539062 39.613281 C 38.332031 41.027344 38.367188 42.46875 38.636719 43.875 C 38.664062 45.101562 38.359375 46.304688 38.359375 47.535156 C 37.976562 47.25 37.613281 46.945312 37.238281 46.652344 C 36.914062 45.542969 37.058594 44.375 37.03125 43.238281 C 37.144531 41.195312 37.210938 39.152344 37.289062 37.101562 Z M 37.289062 37.101562 "/>
<path style=" stroke:none;fill-rule:nonzero;fill:rgb(87.843137%,3.529412%,7.843137%);fill-opacity:1;" d="M 20.246094 20.933594 C 20.503906 19.972656 21.515625 19.125 22.5625 19.289062 C 21.789062 19.832031 21.082031 20.480469 20.246094 20.933594 Z M 20.246094 20.933594 "/>
<path style=" stroke:none;fill-rule:nonzero;fill:rgb(87.843137%,3.529412%,7.843137%);fill-opacity:1;" d="M 38.589844 16.125 C 39.230469 15.550781 40.011719 15.117188 40.890625 15.054688 L 41.320312 15.171875 C 41.351562 15.234375 41.421875 15.351562 41.457031 15.421875 C 41.289062 15.738281 41.144531 16.0625 41.023438 16.394531 C 40.84375 16.371094 40.679688 16.355469 40.511719 16.324219 C 40.066406 16.214844 39.613281 16.148438 39.15625 16.128906 C 38.960938 16.132812 38.777344 16.136719 38.589844 16.125 Z M 38.589844 16.125 "/>
<path style=" stroke:none;fill-rule:nonzero;fill:rgb(87.843137%,3.529412%,7.843137%);fill-opacity:1;" d="M 10.59375 29.171875 C 10.488281 28.300781 11.210938 27.65625 11.933594 27.328125 C 12.476562 27.035156 13.101562 26.921875 13.714844 27.003906 C 12.941406 27.363281 12.230469 27.832031 11.597656 28.398438 C 11.292969 28.683594 11 29.023438 10.59375 29.171875 Z M 10.59375 29.171875 "/>
<path style=" stroke:none;fill-rule:nonzero;fill:rgb(87.843137%,3.529412%,7.843137%);fill-opacity:1;" d="M 39.441406 26.144531 C 40.042969 25.808594 40.636719 25.417969 41.335938 25.324219 C 42.03125 25.554688 42.652344 25.964844 43.132812 26.515625 C 42.058594 26.683594 41.109375 27.21875 40.253906 27.859375 C 41.109375 28.28125 42.039062 28.738281 42.558594 29.570312 C 42.875 30.03125 42.710938 30.601562 42.679688 31.113281 L 42.460938 31.089844 C 41.242188 29.953125 39.707031 28.992188 38 28.890625 C 37.304688 28.890625 36.550781 29.035156 36.027344 29.515625 C 35.484375 29.941406 35.199219 30.578125 34.8125 31.128906 C 34.585938 30.675781 34.382812 30.175781 34.554688 29.667969 C 34.765625 28.5625 35.707031 27.824219 36.667969 27.359375 C 37.605469 26.988281 38.5625 26.644531 39.441406 26.144531 Z M 39.441406 26.144531 "/>
<path style=" stroke:none;fill-rule:nonzero;fill:rgb(87.843137%,3.529412%,7.843137%);fill-opacity:1;" d="M 34.546875 33.0625 C 35.601562 32.636719 36.660156 33.386719 37.296875 34.175781 C 37.203125 34.40625 36.960938 34.675781 36.695312 34.519531 C 36.28125 34.222656 35.792969 34.050781 35.285156 34.019531 C 35.054688 33.691406 34.800781 33.375 34.546875 33.0625 Z M 34.546875 33.0625 "/>
<path style=" stroke:none;fill-rule:nonzero;fill:rgb(87.843137%,3.529412%,7.843137%);fill-opacity:1;" d="M 50.71875 18.535156 C 51.183594 18.363281 51.664062 18.242188 52.15625 18.171875 C 53.085938 18.226562 54.433594 18.351562 54.671875 19.464844 C 53.523438 19.140625 52.398438 18.671875 51.191406 18.632812 Z M 50.71875 18.535156 "/>
<path style=" stroke:none;fill-rule:nonzero;fill:rgb(87.843137%,3.529412%,7.843137%);fill-opacity:1;" d="M 35.433594 26.214844 C 35.980469 25.046875 36.960938 24.128906 38.167969 23.664062 C 38.824219 23.398438 39.761719 23.785156 39.800781 24.542969 C 39.730469 24.929688 39.335938 25.148438 39.089844 25.429688 C 38.035156 26.164062 36.691406 26.382812 35.433594 26.214844 Z M 35.433594 26.214844 "/>
<path style=" stroke:none;fill-rule:nonzero;fill:rgb(87.843137%,3.529412%,7.843137%);fill-opacity:1;" d="M 22.210938 29.363281 C 22.34375 28.699219 22.832031 28.195312 23.3125 27.75 C 23.488281 27.910156 23.65625 28.082031 23.816406 28.265625 C 23.453125 29.179688 22.941406 30.03125 22.605469 30.964844 C 22.414062 30.453125 22.039062 29.925781 22.210938 29.363281 Z M 22.210938 29.363281 "/>
<path style=" stroke:none;fill-rule:nonzero;fill:rgb(98.823529%,99.215686%,99.215686%);fill-opacity:1;" d="M 26.480469 43.582031 C 26.78125 43.25 27.09375 42.925781 27.414062 42.609375 C 28.972656 44.308594 30.53125 46.007812 32.09375 47.703125 C 32.628906 48.328125 33.226562 48.902344 33.710938 49.574219 C 33.402344 49.804688 33.082031 50.015625 32.75 50.207031 C 30.609375 48.050781 28.578125 45.78125 26.480469 43.582031 Z M 26.480469 43.582031 "/>
</g>
</svg>
