<?xml version="1.0" standalone="no"?>
<!DOCTYPE svg PUBLIC "-//W3C//DTD SVG 20010904//EN"
 "http://www.w3.org/TR/2001/REC-SVG-20010904/DTD/svg10.dtd">
<svg version="1.0" xmlns="http://www.w3.org/2000/svg"
 width="1200.000000pt" height="1200.000000pt" viewBox="0 0 1200.000000 1200.000000"
 preserveAspectRatio="xMidYMid meet">
<metadata>
Created by potrace 1.14, written by Peter Selinger 2001-2017
</metadata>
<g transform="translate(0.000000,1200.000000) scale(0.100000,-0.100000)"
fill="#000000" stroke="none">
<path d="M2969 10508 c-2 -42 1 -541 3 -543 8 -8 98 -12 103 -5 4 6 8 400 6
528 l-1 32 -55 0 c-37 0 -55 -4 -56 -12z"/>
<path d="M4643 10144 c3 -3 -4 -27 -15 -52 -11 -26 -21 -54 -23 -62 -5 -20
-55 -169 -65 -195 -13 -30 -30 -89 -28 -95 1 -3 -4 -15 -11 -28 -7 -13 -14
-31 -16 -40 -2 -9 -8 -31 -13 -48 -11 -34 -11 -34 60 -62 l27 -11 32 97 c17
53 36 103 42 110 5 6 7 12 4 12 -3 0 15 60 39 133 25 72 48 143 50 157 3 13
10 30 15 37 8 9 1 16 -28 28 -41 18 -79 28 -70 19z"/>
<path d="M1222 10006 l-42 -21 76 -155 c143 -291 158 -320 166 -320 12 0 88
39 88 45 0 3 -40 87 -90 187 -49 100 -90 187 -90 195 0 7 -4 13 -9 13 -5 0
-15 15 -21 34 -14 45 -27 48 -78 22z"/>
<path d="M2720 9850 c-28 -4 -35 -10 -37 -30 -1 -14 -4 -46 -7 -72 -4 -34 -2
-48 7 -49 7 0 33 -2 59 -2 25 -1 49 -5 52 -8 3 -3 -3 -32 -15 -65 -11 -32 -22
-70 -24 -84 -2 -14 -5 -32 -7 -40 -4 -17 20 -20 72 -8 19 5 46 11 58 14 27 5
57 23 120 71 42 31 123 67 177 78 23 5 58 12 95 20 8 2 34 4 56 4 l42 1 -2 69
c-1 77 -5 84 -44 88 -147 12 -547 21 -602 13z"/>
<path d="M3126 9589 c-41 -11 -92 -49 -110 -80 -15 -26 -15 -28 1 -27 54 2
237 -60 255 -86 4 -6 8 -8 8 -4 0 5 23 -15 51 -42 28 -28 52 -50 54 -50 4 0
-3 87 -10 121 -8 40 -41 97 -70 121 -49 42 -127 63 -179 47z"/>
<path d="M1680 9542 c-157 -79 -371 -193 -436 -233 -17 -10 -34 -16 -37 -12
-13 13 -7 -17 11 -54 11 -21 23 -48 28 -60 l9 -22 41 18 c37 17 44 17 71 4
l30 -14 -27 -54 c-33 -64 -32 -110 2 -185 23 -49 34 -62 35 -37 2 49 35 137
71 190 31 44 102 86 207 122 91 32 145 57 145 69 0 11 -8 18 -87 75 -70 51
-62 58 70 64 99 5 121 15 83 40 -30 20 -86 99 -86 121 0 26 -29 18 -130 -32z"/>
<path d="M4039 9583 c-11 -3 -48 -84 -55 -123 0 -3 -4 -13 -7 -22 -13 -34 -19
-53 -23 -76 -4 -20 -2 -22 14 -13 10 5 24 21 32 36 20 38 70 65 121 65 24 0
51 -4 59 -10 12 -7 11 -12 -5 -32 -11 -12 -28 -29 -38 -36 -20 -15 -51 -71
-43 -79 3 -3 20 -7 38 -8 18 -2 35 -5 38 -6 6 -3 12 -4 80 -13 99 -14 204 -55
251 -97 24 -21 48 -39 52 -39 5 0 5 -4 2 -10 -3 -5 -1 -10 4 -10 6 0 11 -9 11
-20 0 -11 3 -20 8 -20 4 0 7 -27 7 -61 -1 -60 10 -87 21 -52 3 10 8 25 12 33
3 8 6 17 7 20 0 3 9 20 18 37 16 30 88 79 99 67 3 -2 10 2 17 10 10 11 3 22
-35 58 -41 39 -47 50 -52 96 -2 29 -1 52 3 52 4 0 27 -16 51 -35 23 -19 47
-35 52 -35 9 0 29 38 42 82 7 24 3 30 -48 66 -32 22 -68 49 -81 61 -31 27 -31
27 -96 -10 l-54 -30 -33 35 c-68 71 -197 114 -360 119 -51 2 -100 2 -109 0z"/>
<path d="M2925 9449 c-59 -18 -91 -22 -168 -22 -65 -1 -76 -3 -72 -16 2 -9 6
-27 9 -41 12 -61 16 -74 27 -84 8 -8 13 -7 16 2 7 18 35 43 74 66 l33 20 -24
-40 c-40 -66 -70 -128 -70 -144 0 -8 10 -20 23 -25 19 -9 28 -4 68 35 54 54
75 70 87 70 5 0 35 11 65 25 31 13 73 32 94 40 l38 16 -30 25 c-16 13 -35 28
-41 33 -13 10 -92 51 -96 50 -2 0 -16 -5 -33 -10z"/>
<path d="M3233 9310 c-37 -8 -109 -44 -130 -65 -13 -13 -10 -15 19 -16 18 0
42 -2 53 -4 112 -18 115 -18 115 -4 0 8 6 26 14 41 11 20 11 29 3 36 -21 16
-41 19 -74 12z"/>
<path d="M4085 9242 c-2 -3 -26 -6 -52 -7 -67 -3 -70 -3 -71 -17 0 -7 -3 -22
-5 -33 -18 -70 -27 -112 -27 -126 0 -22 28 -19 65 7 31 22 109 52 135 53 8 0
36 2 63 4 26 2 47 1 47 -2 0 -3 15 -6 33 -7 18 0 42 -4 53 -9 10 -4 24 -9 31
-11 23 -4 78 -47 124 -96 l47 -48 5 37 c5 45 -14 98 -46 125 -12 11 -31 27
-42 36 -27 23 -183 84 -195 77 -6 -4 -10 -2 -10 2 0 5 -12 9 -27 8 -16 0 -49
2 -76 6 -26 3 -49 3 -52 1z"/>
<path d="M1845 9211 c-171 -50 -321 -175 -404 -339 -21 -40 -21 -82 -1 -82 4
0 10 -8 14 -17 10 -30 56 -87 57 -72 8 113 37 179 113 254 49 49 138 100 195
112 46 10 177 6 200 -7 20 -10 22 -10 18 7 -6 19 -19 97 -22 123 -2 31 -17 40
-63 39 -26 0 -74 -8 -107 -18z"/>
<path d="M2983 9185 c-71 -21 -154 -85 -191 -147 -9 -15 -20 -28 -24 -28 -4 0
-8 -8 -8 -19 0 -10 -7 -35 -15 -54 -14 -34 -21 -137 -10 -137 3 0 25 9 47 20
23 11 46 20 50 20 20 0 148 66 203 105 103 73 124 81 234 89 42 3 58 8 71 26
21 28 15 57 -14 66 -11 4 -23 10 -26 13 -6 8 -101 39 -145 47 -56 11 -134 10
-172 -1z"/>
<path d="M92 9104 c-17 -18 -32 -37 -32 -42 0 -10 383 -402 393 -402 4 0 22
15 41 33 l34 33 -117 121 c-64 66 -151 157 -193 201 -43 44 -81 83 -85 85 -5
3 -23 -10 -41 -29z"/>
<path d="M4157 9063 c-1 -1 -14 -3 -27 -5 -14 -2 -34 -9 -45 -16 -19 -11 -19
-11 5 -13 37 -1 61 -5 100 -14 19 -5 39 -8 44 -7 4 2 13 -2 20 -7 6 -5 28 -12
49 -16 20 -4 40 -11 43 -16 6 -10 24 -2 24 10 0 25 -88 85 -117 80 -5 -1 -10
0 -13 1 -7 3 -81 6 -83 3z"/>
<path d="M1902 8998 c-43 -12 -75 -41 -119 -107 -42 -62 -109 -131 -129 -131
-8 0 -14 -3 -14 -8 0 -4 -14 -13 -30 -20 -25 -12 -30 -19 -26 -40 2 -15 5 -30
5 -33 2 -12 67 -38 86 -34 11 2 25 4 31 4 18 1 69 53 85 86 16 33 89 110 133
140 76 53 155 118 151 125 -4 7 -58 19 -115 25 -14 1 -40 -1 -58 -7z"/>
<path d="M1735 8969 c-29 -8 -119 -89 -100 -89 6 0 3 -4 -5 -10 -8 -5 -12 -12
-8 -15 6 -6 50 18 74 40 6 5 23 19 38 30 16 11 38 28 50 37 20 17 20 17 1 17
-11 -1 -34 -5 -50 -10z"/>
<path d="M3167 8955 c-35 -9 -64 -27 -105 -66 -31 -30 -60 -58 -64 -64 -4 -5
-10 -6 -14 -2 -4 4 -12 3 -18 -2 -6 -5 -24 -12 -41 -14 -45 -8 -109 -28 -120
-37 -5 -4 -19 -10 -30 -12 -11 -1 -29 -11 -39 -20 -11 -10 -25 -18 -32 -18 -7
0 -14 -3 -16 -8 -1 -4 -15 -17 -30 -28 l-27 -21 46 -43 c44 -43 79 -97 75
-114 -2 -4 2 -14 8 -21 8 -9 8 -15 0 -20 -7 -4 -7 -12 0 -26 15 -27 24 -18 40
40 7 28 17 51 20 51 4 0 12 11 18 25 16 36 80 103 123 130 40 26 125 54 150
50 11 -2 23 11 35 37 22 48 62 70 106 57 16 -4 32 -8 36 -9 4 0 23 -11 42 -23
19 -12 39 -24 44 -26 16 -6 58 -51 49 -51 -4 0 -2 -4 5 -9 8 -4 24 -26 37 -47
27 -43 27 -42 27 58 -1 96 -48 165 -147 214 -65 31 -114 37 -178 19z"/>
<path d="M4045 8948 c-73 -9 -212 -51 -243 -74 -23 -16 -72 -110 -72 -137 0
-11 14 -7 57 15 83 43 172 61 273 55 47 -3 96 -8 109 -11 78 -18 133 -39 185
-71 55 -33 136 -104 136 -120 0 -3 6 -12 13 -20 12 -11 18 1 39 76 l25 90 -31
33 c-121 123 -312 188 -491 164z"/>
<path d="M820 8855 c-6 -8 -22 -17 -33 -21 -38 -12 -150 -89 -199 -137 -49
-48 -70 -82 -82 -129 -6 -26 -10 -27 -73 -30 -46 -2 -68 -7 -74 -18 -4 -8 -24
-48 -43 -87 l-36 -73 36 -40 c20 -22 40 -40 44 -40 4 0 13 15 21 33 15 38 47
87 58 87 12 0 31 -65 27 -96 -2 -16 -11 -49 -20 -73 -9 -24 -16 -45 -16 -47 0
-2 20 -4 44 -4 61 0 88 -12 140 -63 25 -25 47 -43 49 -40 3 2 -4 27 -15 56
-23 60 -25 131 -5 165 5 6 6 12 2 12 -10 0 48 85 80 115 41 39 91 75 105 75 5
0 10 4 10 9 0 5 10 13 23 17 12 3 30 13 40 22 9 8 17 12 17 8 0 -4 7 -1 15 8
8 8 15 19 15 25 0 14 -78 59 -114 65 -16 3 -31 7 -33 10 -11 10 21 49 50 61
36 15 65 12 118 -15 47 -24 48 -25 42 -1 -6 23 -109 133 -140 149 -28 16 -38
15 -53 -3z"/>
<path d="M2044 8818 c-3 -4 -10 -6 -15 -3 -27 17 -174 -86 -204 -144 -7 -15
-30 -45 -49 -67 -20 -21 -44 -51 -53 -66 -10 -16 -20 -28 -24 -28 -17 0 -41
-104 -35 -149 8 -66 10 -71 34 -121 18 -38 21 -41 22 -20 4 92 51 182 147 280
42 43 90 84 105 91 15 6 28 14 28 18 0 14 107 45 160 47 54 1 128 -19 143 -40
4 -6 6 0 5 14 -4 32 -49 109 -79 134 -49 41 -171 77 -185 54z"/>
<path d="M3955 8695 c-110 -26 -218 -99 -224 -152 -4 -36 -3 -88 2 -113 3 -14
6 -29 6 -33 1 -5 21 9 46 31 143 126 431 101 591 -50 l51 -48 10 37 c24 95 -5
178 -85 248 -38 33 -125 74 -158 75 -11 0 -24 3 -27 7 -12 12 -160 11 -212 -2z"/>
<path d="M3292 8668 c-24 -24 -11 -47 53 -92 36 -25 68 -46 71 -46 3 0 15 -9
27 -21 19 -17 22 -18 25 -5 10 47 -44 129 -105 160 -38 19 -55 20 -71 4z"/>
<path d="M3061 8628 c-41 -11 -94 -45 -142 -90 -36 -33 -79 -94 -79 -112 0 -8
133 -3 176 7 73 18 164 88 164 128 0 48 -61 82 -119 67z"/>
<path d="M1035 8559 c-238 -79 -392 -250 -351 -391 4 -14 15 -33 25 -42 15
-14 18 -10 35 54 10 39 22 70 27 70 5 0 9 6 9 13 0 15 77 97 91 97 6 0 17 7
25 15 35 34 166 59 240 44 5 -1 21 -1 37 0 l27 1 -20 38 c-40 75 -66 116 -76
118 -5 2 -36 -6 -69 -17z"/>
<path d="M2386 8573 c-4 -5 -56 -9 -114 -10 -59 -1 -116 -4 -127 -6 -40 -10
-105 -39 -105 -48 0 -5 -6 -9 -12 -9 -20 -1 -67 -74 -72 -113 -4 -35 -4 -35
25 -25 16 5 29 13 29 18 0 14 105 43 158 42 52 0 148 -37 180 -69 17 -16 29
-17 29 0 0 6 3 22 7 35 4 12 3 22 -2 22 -17 0 -4 70 22 115 14 24 26 46 26 49
0 9 -35 7 -44 -1z"/>
<path d="M8238 8524 c-3 -2 -14 -7 -24 -9 -11 -2 -55 -14 -99 -26 -44 -11 -87
-23 -95 -25 -53 -12 -368 -96 -380 -101 -8 -3 -24 -7 -35 -8 -11 -2 -143 -35
-293 -74 -151 -39 -283 -73 -295 -76 -12 -2 -42 -9 -67 -16 -25 -6 -52 -12
-60 -14 -99 -21 -108 -26 -112 -61 -6 -47 15 -137 51 -219 37 -86 27 -85 266
-7 44 14 85 27 90 28 6 1 82 28 169 58 143 51 446 154 471 160 6 2 17 6 25 9
108 40 162 58 179 60 12 1 21 4 21 8 0 3 45 16 100 29 116 26 154 22 217 -21
43 -30 125 -135 137 -176 4 -13 12 -23 17 -23 5 0 9 -4 9 -10 0 -5 18 -39 40
-75 22 -36 40 -68 40 -71 0 -2 5 -10 10 -17 46 -55 103 -178 115 -247 8 -48
39 -120 80 -185 14 -22 28 -48 31 -57 4 -10 10 -18 15 -18 5 0 9 -4 9 -9 0 -5
36 -68 80 -139 44 -72 80 -135 80 -140 0 -6 4 -12 8 -14 5 -1 25 -32 46 -68
20 -36 77 -132 126 -213 50 -82 90 -153 90 -158 0 -5 3 -9 8 -9 4 0 16 -17 27
-37 10 -21 33 -60 51 -88 60 -96 124 -208 124 -216 0 -5 5 -9 10 -9 6 0 10 -5
10 -10 0 -6 22 -45 48 -88 26 -42 51 -84 55 -92 4 -8 15 -27 25 -42 9 -14 38
-62 63 -105 67 -113 238 -394 260 -424 10 -14 16 -29 12 -32 -3 -4 2 -9 11
-13 9 -3 16 -11 16 -16 0 -22 494 -800 519 -818 4 -3 10 -12 14 -20 4 -8 31
-49 61 -90 30 -41 83 -116 118 -167 66 -96 101 -130 68 -65 -28 57 -58 126
-58 136 0 5 -4 12 -9 15 -4 3 -72 134 -151 291 -79 157 -161 320 -184 364 -67
130 -63 215 12 285 45 41 52 45 109 70 75 32 82 33 212 34 l117 2 84 57 c46
31 94 66 107 78 13 11 28 20 32 20 4 0 14 6 21 13 7 6 42 32 78 57 36 24 67
48 68 52 2 4 9 8 15 8 7 0 23 9 37 20 14 11 86 63 160 116 205 146 206 148
141 207 -89 80 -358 236 -453 262 -5 2 -10 4 -13 5 -3 1 -8 3 -12 5 -5 1 -17
5 -28 9 -64 25 -196 59 -265 70 -19 3 -46 8 -60 11 -41 8 -189 18 -275 19
-141 0 -242 -11 -435 -49 -14 -3 -34 -7 -45 -9 -21 -4 -149 -34 -175 -40 -8
-2 -44 -11 -79 -21 -35 -9 -64 -15 -66 -13 -9 11 -106 168 -191 308 -54 91
-102 167 -106 168 -5 2 -8 9 -8 16 0 6 -16 35 -35 65 -19 29 -35 55 -35 58 0
2 -16 32 -35 65 -20 33 -34 62 -32 64 2 2 48 6 103 9 467 22 626 39 689 76 32
19 52 64 33 75 -4 3 -6 9 -3 14 3 5 1 19 -4 32 -11 26 -23 58 -27 73 -2 6 -25
74 -51 152 -26 78 -49 146 -50 151 -1 5 -4 20 -7 33 -2 13 -7 35 -10 49 -3 14
-8 41 -11 60 -2 19 -6 44 -9 55 -5 27 -19 133 -22 170 -5 67 -15 152 -20 180
-4 17 -7 44 -8 60 -1 21 -6 29 -16 27 -21 -4 -182 -69 -267 -108 -39 -17 -74
-30 -77 -26 -3 3 -6 0 -6 -6 0 -7 -6 -12 -14 -12 -11 0 -52 -17 -223 -96 -17
-8 -34 -14 -39 -14 -4 0 -15 -7 -24 -15 -9 -8 -25 -16 -36 -18 -10 -2 -41 -14
-69 -27 -27 -12 -94 -42 -148 -65 -54 -23 -101 -45 -104 -49 -9 -9 -44 47
-190 296 -70 120 -146 239 -169 266 -49 55 -126 101 -170 100 -17 -1 -36 2
-41 5 -6 4 -12 4 -15 1z"/>
<path d="M3270 8485 c-19 -7 -78 -35 -130 -62 -52 -28 -106 -54 -120 -58 -59
-17 -154 -70 -189 -105 -21 -21 -46 -60 -57 -87 -18 -44 -19 -52 -6 -96 l13
-48 20 25 c10 13 19 27 19 30 0 7 28 42 54 67 69 67 204 73 331 14 47 -22 140
-84 173 -115 29 -27 38 -20 40 30 3 71 -42 128 -147 185 l-51 28 63 39 c34 21
81 43 105 49 23 7 45 16 49 22 7 12 -26 40 -87 71 -40 21 -49 22 -80 11z"/>
<path d="M4080 8402 c-18 -6 -30 -22 -30 -40 0 -35 230 -224 285 -234 18 -3
20 2 18 49 -4 89 -56 166 -139 204 -43 20 -110 30 -134 21z"/>
<path d="M3900 8393 c-8 -2 -27 -21 -43 -43 -20 -28 -42 -44 -83 -59 -30 -12
-59 -21 -64 -21 -22 0 -8 -20 15 -21 14 -1 28 -2 33 -3 4 -1 22 -6 39 -10 18
-4 65 -25 105 -46 40 -21 118 -52 173 -70 55 -17 108 -35 118 -41 12 -7 17 -5
17 5 0 8 2 20 5 28 3 9 -17 22 -63 41 -97 41 -152 97 -168 170 -3 12 -7 29 -9
37 -2 8 -4 20 -4 25 -1 10 -42 14 -71 8z"/>
<path d="M1015 8355 c-92 -27 -165 -88 -165 -137 0 -16 3 -28 8 -28 4 0 32 23
62 50 30 27 66 55 80 62 14 7 30 17 35 21 6 4 19 14 29 21 28 19 0 26 -49 11z"/>
<path d="M1228 8328 c-45 -10 -86 -22 -92 -28 -5 -5 -17 -10 -25 -10 -21 0
-139 -73 -182 -112 -58 -54 -126 -155 -135 -203 -1 -5 -5 -21 -9 -35 -5 -20 2
-36 31 -75 21 -27 46 -57 56 -67 20 -20 21 -19 33 37 12 53 54 129 100 180 24
28 45 53 45 58 0 4 7 7 15 7 8 0 15 4 15 9 0 9 62 53 120 85 52 28 132 54 192
61 29 4 54 8 56 10 2 1 18 -1 37 -5 46 -10 49 -4 12 32 -85 82 -117 89 -269
56z"/>
<path d="M2145 8335 c-5 -2 -22 -6 -37 -9 -24 -5 -37 -24 -44 -61 -1 -6 -45
-53 -98 -106 -53 -53 -96 -104 -96 -112 0 -12 10 -14 48 -10 117 12 192 14
192 7 0 -5 -25 -36 -55 -68 -86 -92 -97 -170 -33 -235 l31 -32 17 53 c25 80
116 208 148 208 7 0 12 4 12 9 0 25 153 75 190 61 3 -1 17 -3 32 -5 15 -2 52
-17 82 -34 l55 -30 -9 25 c-19 49 -33 69 -75 110 -50 48 -93 62 -215 68 -47 3
-95 8 -107 12 -27 8 -21 24 9 24 27 0 126 50 132 66 11 29 -130 76 -179 59z"/>
<path d="M1834 8267 c-61 -67 -74 -130 -41 -193 14 -26 15 -26 25 -8 5 10 10
22 11 27 0 4 17 38 36 77 40 80 42 91 17 113 -17 16 -20 15 -48 -16z"/>
<path d="M1478 8135 c-2 -1 -34 -5 -73 -8 -125 -10 -230 -62 -319 -157 -69
-73 -95 -137 -92 -221 2 -59 6 -72 36 -113 35 -45 49 -55 51 -36 6 46 52 136
93 180 66 73 152 129 243 161 59 20 183 21 219 1 29 -15 33 -8 22 40 -14 65
-30 89 -80 122 -25 16 -93 37 -100 31z"/>
<path d="M3604 8106 c-23 -40 -28 -138 -8 -185 22 -54 56 -83 154 -137 49 -26
92 -54 95 -62 12 -31 -6 -33 -120 -13 -80 14 -183 -17 -250 -74 -29 -26 -29
-26 -5 -21 14 2 32 7 40 10 72 27 220 30 298 7 118 -36 220 -104 236 -158 7
-23 -14 -40 -44 -37 -8 1 -23 2 -32 3 -9 0 -23 7 -30 14 -35 33 -107 85 -143
101 -45 21 -183 34 -209 19 -14 -8 -9 -14 31 -39 254 -159 286 -174 378 -174
85 0 180 53 190 106 2 11 4 19 5 19 1 0 3 9 5 19 6 30 -22 86 -60 123 -28 27
-31 34 -18 41 18 10 21 64 4 70 -6 2 -11 9 -11 15 0 24 -55 88 -99 115 -25 16
-75 39 -111 52 -114 41 -160 62 -160 74 0 24 189 0 264 -34 23 -10 48 -21 56
-24 26 -10 52 -30 94 -69 22 -20 44 -36 49 -34 10 3 47 111 47 135 0 11 -129
79 -164 87 -11 2 -16 4 -61 21 -24 8 -16 7 -135 32 -52 11 -102 20 -110 21 -8
0 -47 2 -86 4 -71 4 -71 4 -90 -27z"/>
<path d="M3018 8100 c-20 -4 -44 -12 -52 -20 -9 -7 -16 -10 -16 -7 0 3 -13 -6
-28 -21 -31 -29 -76 -91 -71 -96 2 -2 27 -11 56 -20 53 -17 121 -64 137 -94 5
-10 13 -19 17 -22 24 -16 12 -106 -18 -142 -26 -30 12 -40 167 -44 126 -3 185
12 245 61 38 32 36 34 -56 49 -19 3 -45 8 -59 11 -14 3 -36 8 -50 11 -13 3
-29 9 -36 15 -6 5 -13 7 -16 4 -12 -12 -61 56 -61 85 0 48 16 56 60 30 95 -57
156 -90 160 -86 13 13 -86 155 -152 218 -27 26 -113 65 -155 70 -19 3 -52 2
-72 -2z"/>
<path d="M8235 8080 c-4 -6 -11 -8 -16 -5 -14 9 -77 -25 -81 -43 -6 -25 32
-115 88 -212 168 -290 167 -288 168 -417 1 -62 3 -113 6 -113 3 0 6 -37 6 -83
2 -89 11 -234 18 -282 2 -16 5 -52 7 -80 1 -27 4 -54 7 -58 23 -43 21 -713 -3
-857 -5 -34 -15 -97 -22 -145 -3 -22 -10 -51 -14 -64 -5 -13 -7 -26 -5 -28 3
-3 1 -16 -4 -29 -8 -21 -56 -193 -65 -234 -8 -33 -95 -270 -128 -345 -84 -193
-173 -363 -252 -485 -55 -84 -53 -81 -95 -131 -16 -20 -30 -39 -30 -43 0 -7
-8 -16 -115 -126 -213 -220 -456 -382 -760 -506 -33 -14 -69 -29 -80 -34 -33
-16 -78 -32 -105 -37 -42 -8 -55 -11 -57 -13 -4 -3 -11 -5 -68 -15 -53 -9 -63
-11 -67 -14 -2 -2 -15 -4 -31 -6 -22 -3 -67 -12 -147 -30 -3 0 -27 -5 -55 -10
-53 -9 -63 -11 -67 -14 -2 -2 -14 -4 -28 -6 -14 -2 -59 -11 -100 -20 -80 -18
-134 -27 -162 -28 -10 -1 -18 -5 -18 -10 0 -4 -4 -6 -8 -3 -5 3 -24 1 -43 -4
-19 -5 -47 -12 -64 -15 -66 -11 -94 -17 -180 -36 -49 -11 -103 -22 -120 -24
-16 -2 -39 -6 -50 -9 -52 -12 -113 -25 -140 -30 -16 -3 -43 -9 -60 -12 -16 -4
-39 -8 -50 -9 -11 -2 -21 -4 -22 -5 -4 -3 -11 -5 -68 -15 -27 -4 -54 -9 -60
-11 -5 -1 -57 -12 -115 -24 -58 -12 -114 -24 -125 -26 -11 -2 -31 -6 -45 -9
-14 -3 -34 -7 -45 -9 -92 -19 -235 -48 -255 -51 -14 -3 -43 -9 -65 -14 -22 -6
-40 -10 -40 -10 0 0 -11 -2 -25 -5 -14 -3 -38 -8 -55 -10 -16 -3 -86 -17 -155
-31 -69 -14 -134 -28 -145 -30 -11 -1 -65 -13 -120 -24 -98 -21 -119 -25 -180
-36 -16 -3 -70 -14 -120 -25 -49 -10 -105 -22 -124 -25 -46 -8 -52 -13 -47
-38 3 -12 7 -31 9 -42 2 -11 8 -38 12 -60 5 -22 9 -44 11 -50 1 -5 5 -23 8
-40 15 -82 17 -86 37 -80 40 11 55 14 84 19 39 7 123 24 155 31 14 3 34 7 45
9 16 3 78 15 150 31 11 2 83 16 105 20 8 2 36 8 63 14 26 6 64 14 85 17 20 3
45 7 54 10 21 6 57 14 83 18 11 2 58 12 105 21 47 10 91 18 98 18 6 0 12 4 12
9 0 5 4 7 9 3 5 -3 29 -1 53 4 24 6 58 13 77 16 19 3 37 7 40 9 3 2 22 7 41
10 19 3 66 12 103 20 l69 14 -7 -57 c-25 -217 -106 -432 -229 -616 -62 -91
-179 -217 -251 -270 -22 -17 -44 -36 -48 -42 -4 -7 -12 -13 -17 -13 -5 0 -29
-13 -52 -29 -47 -32 -199 -110 -227 -116 -9 -3 -43 -14 -76 -25 -298 -103
-658 -79 -953 63 -37 17 -70 36 -74 42 -4 5 -8 6 -8 2 0 -4 -20 6 -44 23 -25
16 -49 30 -54 30 -6 0 -12 3 -14 8 -1 4 -30 27 -62 51 -113 84 -285 278 -347
391 -8 14 -16 27 -19 30 -7 7 -82 161 -85 174 -1 6 -7 25 -14 41 -6 17 -16 41
-21 55 -6 14 -12 34 -15 45 -2 11 -9 40 -15 65 -11 43 -14 58 -25 130 -6 44
-13 51 -43 45 -15 -3 -84 -5 -154 -5 -95 -1 -126 -4 -123 -13 2 -7 6 -31 9
-54 3 -22 8 -52 10 -65 3 -12 8 -34 10 -48 47 -255 203 -597 357 -784 61 -74
231 -237 299 -287 67 -49 235 -153 249 -155 3 0 26 -10 51 -21 104 -49 262
-102 358 -119 12 -2 34 -6 50 -9 132 -26 478 -27 552 -1 8 3 32 7 53 10 61 9
276 85 372 131 97 47 268 151 273 166 2 5 10 9 17 9 7 0 15 3 17 8 2 4 17 18
33 30 47 37 156 144 200 197 22 27 47 56 55 65 8 9 20 24 25 32 6 8 28 42 49
74 36 54 89 154 130 244 67 148 120 395 125 587 1 44 -3 41 76 58 155 32 211
42 218 38 4 -2 7 1 7 7 0 6 4 9 8 6 5 -3 24 -1 43 4 19 5 50 12 69 15 19 3 85
17 145 29 61 13 117 24 125 24 8 1 53 10 100 21 86 20 116 26 180 37 46 8 64
12 68 14 3 3 10 5 67 15 49 8 58 10 73 15 4 1 10 2 14 1 3 0 30 6 60 13 59 15
130 30 198 40 14 2 25 5 25 6 0 2 7 3 55 13 167 36 184 40 275 65 137 38 355
131 435 186 25 17 45 28 45 26 0 -5 175 109 185 120 3 3 19 16 35 29 87 66
202 176 275 262 25 29 52 60 60 69 27 30 120 168 120 179 0 6 4 11 8 11 13 0
100 172 126 248 24 69 32 110 41 192 3 38 11 80 39 220 2 8 9 35 15 60 7 25
12 45 11 45 0 0 13 41 30 90 86 246 194 446 354 660 64 84 274 301 339 349 63
47 78 82 63 153 -4 21 -15 41 -91 173 -60 104 -70 122 -105 185 -18 33 -40 74
-50 90 -22 38 -62 111 -108 195 -19 36 -38 70 -42 75 -4 6 -18 30 -32 55 -36
65 -343 584 -389 657 -21 34 -39 65 -39 67 0 11 -133 216 -141 216 -4 0 -11
-5 -14 -10z"/>
<path d="M2345 7938 c-62 -22 -116 -70 -140 -125 -44 -97 -55 -263 -17 -263 4
0 23 34 42 75 19 41 39 76 46 79 7 3 15 -9 19 -27 18 -71 -1 -127 -66 -201
l-39 -44 30 -7 c96 -21 261 57 303 143 7 15 12 33 11 40 -1 6 -2 17 -3 22 0 6
-12 8 -26 5 -14 -3 -36 -7 -49 -10 -35 -7 -66 34 -59 77 9 57 73 157 101 158
4 0 16 7 26 15 16 12 17 17 6 30 -33 40 -122 55 -185 33z"/>
<path d="M2793 7882 c-31 -5 -29 -14 12 -57 21 -23 40 -35 49 -32 9 4 18 2 21
-4 4 -5 11 -7 16 -4 5 4 9 3 9 -2 0 -4 11 -13 24 -19 24 -11 56 -2 56 17 0 13
-55 69 -69 69 -6 0 -11 5 -11 10 0 6 -9 10 -19 10 -11 0 -22 4 -26 9 -5 9 -16
10 -62 3z"/>
<path d="M1515 7852 c-16 -2 -33 -7 -37 -10 -3 -4 0 -39 7 -78 8 -38 13 -77
11 -85 -4 -27 -45 -94 -80 -134 -34 -38 -46 -78 -27 -89 11 -7 135 123 193
204 25 36 69 86 97 112 28 26 51 49 51 51 0 3 -22 5 -48 5 -26 1 -60 5 -75 11
-15 6 -27 8 -27 5 0 -2 -8 -1 -17 4 -10 4 -31 6 -48 4z"/>
<path d="M2585 7833 c-45 -24 -72 -56 -84 -101 l-9 -30 51 1 c49 2 53 4 68 37
20 42 28 102 14 106 -5 2 -23 -4 -40 -13z"/>
<path d="M1345 7810 c-35 -13 -114 -90 -132 -128 -14 -28 -18 -61 -17 -140 0
-56 3 -105 6 -107 3 -3 26 7 51 22 35 21 50 39 63 73 9 25 30 70 45 100 32 60
40 87 42 139 2 38 -22 54 -58 41z"/>
<path d="M1774 7695 c-117 -61 -234 -161 -321 -275 -24 -30 -47 -60 -53 -67
-22 -26 -14 -38 82 -122 l26 -23 16 57 c27 91 70 156 141 212 74 58 157 94
170 74 6 -10 -16 -37 -107 -134 -72 -75 -109 -145 -109 -200 1 -71 3 -78 33
-93 15 -8 28 -16 28 -17 0 -1 -9 -28 -19 -61 -22 -70 -18 -98 21 -136 64 -64
192 -60 271 8 9 8 17 12 17 8 0 -4 18 14 40 41 58 69 60 72 60 78 0 3 28 52
61 108 34 56 63 105 66 109 4 8 -41 -4 -87 -25 -43 -19 -119 -90 -147 -137
-12 -19 -27 -54 -34 -77 -12 -43 -37 -67 -82 -78 -21 -6 -26 -2 -35 22 -8 25
-4 40 27 102 20 40 54 93 76 117 39 44 152 123 184 129 9 2 16 4 16 5 0 3 43
11 95 17 65 7 71 10 46 29 -70 51 -221 12 -326 -82 -35 -32 -39 -33 -54 -19
-19 19 -15 28 54 124 25 36 48 71 49 76 2 6 7 19 11 30 8 22 7 86 -2 101 -3 5
-8 21 -12 37 -3 15 -11 27 -16 27 -6 0 -10 6 -10 13 0 17 -61 57 -87 57 -12 0
-52 -16 -89 -35z"/>
<path d="M2770 7695 c-79 -17 -83 -19 -97 -32 -7 -6 -17 -13 -22 -15 -17 -5
-40 -73 -31 -88 7 -11 16 -9 52 7 67 31 114 44 163 46 25 0 45 5 45 9 0 4 7 8
15 8 23 0 18 23 -11 45 -40 30 -54 33 -114 20z"/>
<path d="M2992 7551 c-5 -3 -10 -22 -10 -41 0 -19 -1 -37 -2 -40 -3 -10 -12
-299 -14 -422 0 -71 -5 -128 -9 -128 -5 0 -5 -5 -1 -12 10 -16 14 -58 6 -59
-4 0 -16 -3 -27 -5 -68 -15 -70 -15 -93 34 -12 26 -35 75 -51 110 -16 34 -35
70 -42 79 -8 9 -13 18 -11 20 1 2 -5 19 -13 39 -8 20 -15 40 -15 45 0 5 -4 9
-10 9 -5 0 -10 5 -10 10 0 6 -21 54 -47 108 -26 53 -47 100 -47 104 -2 23 -26
30 -55 17 -32 -14 -37 -27 -22 -57 5 -9 26 -55 46 -102 21 -47 50 -110 64
-140 14 -30 26 -57 26 -60 0 -3 22 -50 49 -105 26 -55 49 -104 50 -110 1 -5 5
-16 9 -22 5 -7 5 -14 0 -14 -4 -1 -17 -3 -28 -5 -11 -1 -65 -12 -119 -24
l-100 -20 -44 47 c-24 27 -70 77 -103 113 -32 36 -85 93 -117 128 l-59 63 -36
-36 c-21 -21 -34 -42 -30 -48 4 -7 35 -41 69 -77 196 -205 208 -219 182 -221
-7 0 -20 -2 -28 -4 -8 -2 -31 -6 -50 -9 -19 -4 -42 -9 -50 -11 -8 -2 -28 -7
-45 -10 -60 -10 -91 -16 -135 -26 -69 -16 -126 -27 -177 -34 -12 -2 -26 -6
-32 -9 -5 -4 -31 -9 -58 -12 -26 -3 -51 -9 -56 -13 -4 -4 -2 -32 4 -62 5 -30
12 -65 15 -79 3 -14 18 -90 34 -169 17 -79 32 -157 35 -173 10 -55 15 -83 20
-108 3 -14 10 -45 15 -70 5 -25 16 -76 24 -115 9 -38 17 -81 20 -95 21 -128
23 -131 74 -119 20 5 53 12 72 15 19 3 51 9 70 14 19 5 51 11 70 14 30 5 238
46 310 62 14 3 36 7 50 9 14 2 25 4 25 5 0 1 11 4 25 6 51 10 65 13 65 14 0 1
14 3 30 5 17 3 64 12 105 21 41 8 89 18 105 20 17 3 37 7 45 10 8 3 29 8 45
10 37 4 300 59 315 64 3 1 8 2 13 1 4 -1 38 6 75 14 37 8 78 17 92 19 14 3 36
7 50 10 30 7 115 24 150 31 14 3 39 8 55 11 17 4 39 8 50 9 11 2 20 4 20 5 0
1 7 3 15 5 8 1 62 12 120 24 58 12 115 23 128 26 13 2 31 6 40 9 9 3 33 8 52
11 19 3 78 15 130 26 52 11 106 22 119 25 35 7 42 14 37 32 -3 10 -8 32 -11
51 -3 19 -8 37 -10 40 -2 4 -6 26 -10 51 -4 25 -8 48 -11 51 -2 4 -6 24 -10
44 -3 21 -8 47 -10 59 -3 11 -7 35 -10 51 -3 17 -9 46 -14 65 -5 19 -12 51
-15 70 -3 19 -8 44 -12 54 -3 11 -7 35 -9 53 -1 18 -7 41 -13 51 -6 11 -8 22
-5 24 2 3 -2 32 -10 64 -9 32 -17 70 -20 84 -2 14 -8 43 -12 65 -4 22 -9 42
-9 45 -1 3 -4 15 -9 28 -8 25 0 25 -161 -8 -27 -6 -61 -12 -75 -15 -14 -3 -49
-10 -77 -16 -29 -5 -63 -12 -75 -13 -13 -2 -36 -7 -53 -11 -16 -5 -41 -9 -55
-11 -14 -1 -25 -3 -25 -4 0 -2 -35 -10 -75 -15 l-36 -5 57 172 c75 230 74 225
48 239 -12 6 -34 13 -48 15 -24 4 -28 0 -49 -63 -13 -38 -26 -75 -29 -83 -4
-8 -7 -18 -8 -22 -2 -5 -3 -9 -5 -10 -1 -2 -3 -10 -5 -18 -2 -8 -13 -44 -25
-80 -12 -36 -23 -72 -25 -80 -8 -31 -32 -90 -38 -97 -4 -4 -15 -8 -25 -9 -9
-1 -28 -4 -42 -7 -14 -3 -92 -19 -175 -35 -82 -17 -156 -32 -163 -34 -14 -3
-21 95 -24 322 -1 119 6 195 27 296 5 21 3 34 -6 40 -18 11 -96 22 -107 15z"/>
<path d="M6438 7215 c-3 -3 -18 -7 -34 -10 -16 -2 -74 -13 -129 -25 -55 -11
-111 -23 -125 -25 -14 -2 -70 -14 -125 -25 -55 -11 -111 -23 -125 -25 -14 -3
-47 -9 -75 -15 -27 -6 -59 -12 -70 -14 -11 -2 -31 -6 -45 -9 -14 -4 -36 -9
-50 -11 -14 -3 -35 -7 -46 -10 -12 -2 -37 -7 -55 -10 -19 -3 -45 -8 -59 -11
-14 -3 -45 -10 -70 -15 -25 -4 -56 -11 -70 -14 -51 -12 -181 -38 -208 -41 -15
-2 -27 -4 -27 -5 0 -2 -36 -10 -65 -15 -14 -2 -37 -6 -51 -9 -15 -3 -71 -15
-125 -27 -55 -11 -106 -22 -115 -24 -9 -2 -32 -6 -50 -9 -19 -3 -49 -10 -67
-15 -38 -11 -35 -11 -67 -11 -15 0 -23 -5 -20 -12 2 -7 6 -31 9 -53 3 -22 14
-80 25 -130 11 -49 22 -103 25 -120 2 -16 7 -39 10 -50 2 -11 9 -42 15 -70 6
-27 23 -94 37 -147 24 -88 28 -96 48 -92 11 3 32 6 46 9 14 2 70 13 125 25 55
11 109 23 121 24 11 2 45 9 75 15 31 7 69 14 85 17 16 3 45 9 64 14 19 5 53
11 75 15 22 3 47 7 55 10 8 2 26 6 40 9 69 13 137 27 158 31 75 17 108 23 149
30 18 3 61 12 95 20 35 8 77 16 93 19 55 10 82 16 181 37 55 11 109 22 122 25
12 2 34 6 50 10 15 3 41 8 57 10 17 3 71 15 120 26 50 10 101 21 115 24 45 8
51 13 46 36 -3 13 -19 91 -36 173 -17 83 -33 167 -35 187 -2 21 -6 42 -10 48
-4 6 -9 25 -11 43 -13 96 -40 192 -54 195 -9 1 -19 0 -22 -3z"/>
<path d="M8117 6803 c-4 -4 -16 -8 -26 -10 -9 -1 -55 -17 -102 -35 -46 -18
-87 -31 -91 -30 -5 1 -8 -3 -8 -9 0 -5 -4 -7 -10 -4 -5 3 -10 1 -10 -6 0 -7
-3 -10 -6 -7 -14 15 -354 -181 -430 -247 -7 -5 -36 -28 -65 -50 -127 -96 -367
-354 -459 -495 -8 -12 -21 -29 -28 -36 -7 -8 -10 -14 -6 -14 4 0 0 -8 -8 -17
-65 -74 -207 -392 -248 -553 -6 -25 -14 -52 -17 -60 -3 -8 -7 -25 -9 -38 -1
-12 -7 -46 -13 -75 -42 -203 -44 -533 -7 -812 3 -22 8 -60 11 -85 3 -25 8 -58
10 -75 3 -16 9 -50 13 -75 4 -25 9 -45 12 -44 16 3 97 31 175 61 215 82 452
220 605 350 170 146 348 350 446 513 21 36 41 67 44 70 6 5 120 237 120 243 0
3 8 22 17 43 9 22 16 43 15 48 -2 4 3 15 10 23 7 8 13 20 15 27 1 6 12 43 24
81 18 63 34 121 44 165 2 8 8 35 14 60 37 166 55 496 37 705 -4 39 -8 93 -11
120 -2 28 -6 64 -9 80 -3 17 -8 48 -11 70 -13 82 -16 99 -23 112 -5 7 -11 10
-15 6z"/>
<path d="M6610 6288 c-19 -5 -44 -11 -55 -13 -11 -2 -36 -6 -55 -10 -19 -3
-53 -11 -75 -17 -22 -6 -43 -11 -47 -10 -4 1 -49 -8 -100 -19 -51 -11 -106
-22 -123 -25 -16 -3 -61 -12 -100 -21 -38 -8 -81 -16 -95 -19 -14 -2 -36 -7
-50 -10 -14 -3 -34 -8 -45 -10 -11 -2 -31 -6 -45 -9 -14 -3 -43 -8 -65 -11
-22 -4 -48 -10 -57 -15 -10 -6 -18 -8 -18 -5 0 3 -14 1 -32 -4 -17 -5 -50 -12
-72 -16 -47 -7 -71 -12 -71 -14 0 -2 -67 -12 -87 -13 -10 -1 -18 -4 -18 -7 0
-3 -8 -6 -17 -6 -10 -1 -31 -4 -48 -8 -16 -3 -41 -8 -55 -11 -14 -3 -34 -7
-45 -9 -90 -20 -166 -35 -199 -40 -21 -4 -41 -8 -45 -10 -3 -2 -23 -7 -45 -10
-21 -4 -82 -15 -135 -26 -54 -11 -108 -23 -122 -25 -13 -3 -69 -14 -124 -25
-55 -11 -111 -22 -125 -25 -14 -3 -38 -8 -55 -11 -16 -4 -39 -8 -50 -9 -11 -2
-21 -4 -22 -5 -2 -2 -12 -4 -23 -5 -11 -1 -21 -3 -22 -5 -4 -2 -27 -7 -72 -15
-21 -4 -48 -9 -60 -11 -11 -3 -32 -7 -46 -10 -14 -3 -33 -7 -42 -10 -9 -3 -25
-6 -35 -8 -99 -18 -113 -21 -308 -61 -71 -15 -141 -28 -155 -30 -14 -2 -43 -8
-65 -14 -22 -6 -58 -13 -80 -16 -22 -4 -56 -10 -75 -15 -19 -5 -46 -11 -60
-14 -14 -3 -36 -7 -50 -10 -13 -3 -42 -8 -64 -12 -22 -3 -44 -7 -47 -10 -4 -2
-22 -6 -40 -8 -19 -3 -77 -15 -129 -27 -52 -11 -106 -23 -120 -24 -14 -2 -36
-6 -50 -10 -14 -3 -36 -8 -50 -11 -14 -2 -56 -11 -95 -20 -38 -9 -81 -18 -95
-20 -30 -5 -41 -7 -145 -29 -44 -9 -91 -18 -105 -21 -14 -2 -36 -7 -50 -10
-14 -3 -36 -8 -49 -10 -13 -3 -54 -12 -90 -20 -36 -8 -73 -16 -81 -18 -8 -2
-14 -12 -13 -22 3 -34 12 -79 22 -111 5 -17 7 -33 5 -36 -3 -2 0 -16 5 -30 6
-14 12 -44 15 -66 2 -22 7 -44 10 -49 3 -5 8 -27 12 -47 5 -35 10 -59 19 -95
2 -8 4 -21 4 -28 1 -10 7 -9 25 5 13 10 59 45 102 79 93 72 259 184 273 184 5
0 11 4 13 9 10 26 429 211 517 227 13 3 31 9 40 13 16 8 131 37 181 45 14 3
25 5 25 6 0 1 14 4 30 6 17 1 59 7 95 13 153 23 418 31 530 16 25 -3 63 -8 85
-10 47 -5 90 -12 125 -19 14 -3 41 -9 60 -12 19 -3 73 -17 120 -31 47 -14 90
-26 95 -28 6 -1 19 -6 30 -10 11 -4 54 -21 95 -37 87 -34 303 -141 320 -158 3
-3 32 -23 65 -44 184 -120 370 -288 515 -466 25 -30 47 -57 50 -60 3 -3 17
-21 30 -40 13 -19 29 -38 35 -42 5 -4 6 -8 2 -8 -5 0 -2 -6 5 -14 47 -49 176
-284 229 -419 12 -29 26 -63 32 -77 6 -14 11 -28 12 -32 2 -5 4 -10 5 -13 1
-3 4 -8 5 -12 15 -52 29 -73 44 -69 9 3 27 7 41 10 14 2 63 14 110 26 47 12
96 23 110 25 14 2 26 4 28 6 1 1 7 3 12 4 6 1 11 3 13 4 1 2 15 4 30 6 50 7
56 18 41 83 -7 31 -15 74 -18 94 -2 21 -7 42 -10 47 -3 5 -8 24 -11 42 -7 52
-14 86 -36 187 -12 51 -23 104 -25 118 -2 13 -6 35 -8 48 -2 13 -7 34 -11 45
-3 12 -8 34 -10 49 -2 15 -15 82 -29 149 -65 317 -53 472 55 672 83 154 189
281 435 522 113 112 109 103 87 184 -5 21 -11 53 -12 71 -2 28 -26 41 -61 32z"/>
<path d="M9310 5987 c-19 -18 -57 -50 -85 -72 -27 -22 -61 -49 -74 -60 -78
-63 -231 -239 -231 -265 0 -6 -5 -10 -11 -10 -5 0 -16 -15 -24 -34 -8 -19 -18
-36 -22 -38 -11 -4 -57 -87 -109 -198 -67 -141 -74 -157 -74 -172 0 -8 -5 -19
-12 -26 -7 -7 -8 -12 -4 -12 5 0 4 -6 -1 -12 -6 -7 -14 -26 -18 -43 -5 -16
-10 -34 -11 -40 -14 -43 -44 -181 -51 -230 -8 -62 -10 -360 -3 -428 2 -21 8
-41 12 -43 5 -3 6 -9 3 -14 -8 -13 30 -169 65 -269 17 -46 30 -86 30 -89 0 -2
7 2 16 9 9 7 23 14 32 15 8 2 18 7 21 11 3 5 47 33 96 63 50 30 93 58 97 64 4
6 8 7 8 3 0 -4 10 1 22 13 12 11 26 20 31 20 5 0 27 14 48 31 21 17 39 27 39
22 0 -4 4 -3 8 2 4 6 50 40 102 75 140 94 155 104 158 113 2 4 8 7 12 7 5 0
50 29 99 65 50 36 93 65 96 65 4 0 12 6 19 13 8 6 22 18 32 24 11 7 58 40 106
73 48 33 91 60 97 60 5 0 14 6 18 14 4 7 21 20 37 28 l29 15 50 -76 c50 -77
187 -272 197 -281 3 -3 30 -36 60 -75 88 -114 255 -288 345 -362 95 -77 144
-113 154 -113 6 0 11 -3 11 -7 0 -5 23 -21 51 -38 28 -16 57 -36 64 -43 20
-18 117 -62 138 -62 16 0 16 2 -2 38 -16 32 -83 122 -126 168 -5 7 -32 37 -60
69 -27 31 -65 72 -82 91 -18 19 -33 38 -33 43 0 5 -3 11 -7 13 -10 4 -182 219
-244 303 -24 33 -46 62 -49 65 -29 28 -360 515 -360 530 0 5 -4 10 -8 10 -5 0
-14 10 -20 23 -26 51 -155 251 -164 255 -4 2 -8 8 -8 13 0 7 -66 118 -100 169
-36 53 -210 344 -210 351 0 5 -4 9 -10 9 -5 0 -10 5 -10 10 0 6 -5 16 -10 23
-6 7 -30 44 -53 82 -27 44 -50 71 -62 73 -12 1 -35 -12 -55 -31z"/>
<path d="M11440 5663 c-45 -26 -125 -79 -146 -98 -14 -13 -55 -43 -74 -55 -11
-7 -3 -20 40 -62 30 -29 78 -80 105 -113 28 -33 53 -61 58 -63 4 -2 7 -8 7
-13 0 -9 36 -65 50 -79 3 -3 10 -14 16 -25 6 -11 22 -40 35 -65 49 -88 112
-264 123 -340 2 -14 8 -50 12 -80 10 -68 11 -253 2 -340 -4 -36 -18 -108 -32
-160 -14 -52 -28 -104 -31 -115 -5 -23 -8 -30 -64 -145 -47 -99 -73 -145 -95
-169 -9 -10 -16 -21 -16 -25 0 -4 -6 -13 -12 -21 -7 -7 -28 -31 -46 -53 -31
-39 -96 -104 -152 -153 -35 -30 -200 -141 -200 -134 0 4 -13 -3 -29 -14 -16
-12 -32 -21 -35 -21 -3 0 -25 -8 -49 -19 -61 -27 -100 -41 -144 -52 -21 -6
-56 -15 -78 -20 -94 -25 -166 -32 -295 -31 -152 0 -208 9 -385 57 -68 18 -305
132 -305 146 0 5 -6 9 -13 9 -21 0 -178 132 -255 215 -66 72 -182 229 -200
272 -30 72 -74 143 -85 136 -7 -4 -14 -8 -17 -8 -3 0 -55 -27 -117 -59 l-111
-58 19 -55 c10 -31 24 -62 30 -69 6 -8 9 -14 5 -14 -3 0 8 -23 24 -50 17 -28
30 -55 30 -60 0 -6 3 -10 8 -10 4 0 13 -13 20 -28 6 -16 20 -37 30 -48 9 -10
25 -32 36 -48 82 -128 345 -366 486 -441 231 -121 381 -174 570 -201 71 -10
389 -14 395 -4 3 4 13 6 23 4 14 -4 84 7 187 29 6 2 15 5 20 9 6 3 26 9 45 13
19 4 40 10 45 13 6 4 18 8 28 9 26 4 251 105 255 115 2 4 8 8 13 8 12 0 113
62 117 72 2 4 8 8 13 8 34 0 261 202 346 307 21 27 40 50 43 53 15 13 105 158
114 182 6 16 14 28 18 28 4 0 8 4 8 10 0 5 13 38 29 74 57 122 106 295 127
446 10 69 11 334 1 420 -8 74 -14 115 -17 115 -1 0 -3 14 -6 30 -27 187 -167
507 -287 656 -12 15 -32 40 -44 56 -28 35 -90 101 -123 130 l-25 21 -45 -25z"/>
<path d="M3558 5265 c-2 -1 -34 -5 -73 -9 -70 -6 -83 -8 -185 -27 -30 -6 -66
-12 -80 -15 -125 -22 -337 -89 -438 -138 -47 -23 -51 -28 -42 -46 6 -11 9 -20
6 -20 -2 0 1 -19 6 -42 5 -24 12 -53 14 -66 4 -21 41 -201 48 -232 2 -8 6 -31
10 -50 3 -19 9 -46 12 -60 3 -14 7 -36 10 -50 3 -13 12 -56 20 -95 9 -38 18
-81 20 -95 8 -40 12 -62 24 -120 6 -30 13 -66 14 -80 2 -14 9 -45 16 -70 7
-25 14 -56 16 -70 2 -14 6 -36 9 -50 3 -14 8 -38 11 -55 3 -16 10 -50 15 -75
6 -25 12 -56 15 -70 2 -14 11 -56 19 -95 9 -38 18 -86 21 -105 3 -19 8 -38 10
-41 2 -4 6 -27 9 -50 3 -24 9 -57 14 -74 5 -16 15 -58 21 -92 14 -69 13 -68
87 -53 57 11 100 20 128 24 18 3 78 14 115 22 127 25 257 51 286 58 12 2 37 7
55 10 19 3 77 15 129 26 87 19 141 29 180 35 8 1 22 5 30 8 8 3 33 8 55 12 83
13 101 16 130 25 17 4 46 11 65 14 19 3 46 8 60 11 14 3 36 7 50 10 14 3 102
21 195 40 180 38 188 39 250 50 22 3 48 8 57 11 18 5 35 9 118 24 92 17 100
19 270 54 91 19 193 41 228 49 34 9 62 13 62 10 0 -3 6 0 14 6 40 34 -52 300
-177 511 -37 63 -126 198 -140 211 -7 8 -19 23 -27 35 -65 93 -235 264 -360
360 -71 55 -197 144 -204 144 -3 0 -32 16 -66 36 -110 64 -375 169 -478 189
-13 2 -31 6 -40 9 -9 3 -33 8 -52 11 -19 3 -57 10 -85 15 -27 6 -70 12 -95 15
-49 6 -377 15 -382 10z"/>
<path d="M2455 4865 c-22 -13 -47 -28 -55 -31 -70 -33 -270 -209 -389 -342
-106 -120 -261 -338 -261 -370 0 -5 -4 -12 -8 -14 -15 -6 -99 -182 -141 -294
-44 -119 -88 -271 -96 -330 -2 -20 -7 -44 -9 -53 -3 -9 -8 -38 -11 -66 -2 -27
-7 -62 -10 -77 -7 -30 -9 -29 115 -44 68 -8 499 -9 635 -1 146 9 245 17 285
22 19 2 55 7 80 10 25 3 86 13 135 23 50 9 95 17 100 17 19 0 24 22 15 55 -5
18 -7 37 -4 41 3 5 1 9 -3 9 -5 0 -9 10 -10 23 0 12 -3 36 -7 52 -3 17 -17 84
-31 150 -14 66 -28 131 -31 145 -12 62 -25 127 -29 145 -7 34 -46 228 -51 255
-3 14 -7 32 -10 40 -3 8 -8 31 -10 50 -3 19 -7 43 -10 52 -3 9 -7 27 -9 40 -3
13 -9 46 -15 73 -6 28 -12 61 -15 74 -2 14 -16 77 -30 140 -13 64 -26 127 -29
141 -19 103 -24 106 -91 65z"/>
</g>
</svg>
