<svg width="229" height="64" viewBox="0 0 229 64" fill="none" xmlns="http://www.w3.org/2000/svg">
<path d="M0 36.6537V14.0027H13.6296V16.4359H2.75255V24.0894H12.6085V26.5227H2.75255V36.6537H0Z" fill="#E00914"/>
<path d="M16.4376 36.6537H13.5519L21.8983 14.0027H24.7397L33.0861 36.6537H30.2004L23.4078 17.5861H23.2302L16.4376 36.6537ZM17.5031 27.8056H29.1349V30.2388H17.5031V27.8056Z" fill="#E00914"/>
<path d="M49.0576 19.6654C48.9244 18.5447 48.3843 17.6746 47.4372 17.0552C46.49 16.4359 45.3283 16.1262 43.9521 16.1262C42.9458 16.1262 42.0652 16.2884 41.3105 16.6128C40.5632 16.9373 39.9786 17.3834 39.5569 17.9511C39.1425 18.5189 38.9353 19.164 38.9353 19.8866C38.9353 20.4912 39.0796 21.0111 39.3682 21.4461C39.6642 21.8737 40.0415 22.2314 40.5003 22.5189C40.959 22.7991 41.44 23.0314 41.9431 23.2157C42.4463 23.3927 42.9088 23.5364 43.3305 23.647L45.6391 24.2664C46.2311 24.4212 46.8896 24.6351 47.6147 24.9079C48.3473 25.1807 49.0465 25.5531 49.7125 26.0249C50.3858 26.4895 50.9407 27.0867 51.3773 27.8167C51.8139 28.5466 52.0321 29.4425 52.0321 30.5043C52.0321 31.7282 51.7103 32.8343 51.0665 33.8223C50.4302 34.8103 49.4979 35.5956 48.2696 36.1781C47.0487 36.7606 45.5651 37.0518 43.8189 37.0518C42.191 37.0518 40.7815 36.7901 39.5902 36.2666C38.4063 35.743 37.4739 35.0131 36.7932 34.0767C36.1199 33.1402 35.7388 32.0527 35.65 30.8139H38.4914C38.5653 31.6693 38.8539 32.3771 39.3571 32.9375C39.8676 33.4905 40.5114 33.9034 41.2883 34.1762C42.0726 34.4416 42.9162 34.5744 43.8189 34.5744C44.8696 34.5744 45.813 34.4048 46.6491 34.0656C47.4853 33.7191 48.1475 33.2398 48.6358 32.6278C49.1242 32.0084 49.3684 31.2858 49.3684 30.46C49.3684 29.7079 49.1575 29.096 48.7357 28.6241C48.314 28.1522 47.759 27.7687 47.0709 27.4738C46.3827 27.1789 45.6391 26.9208 44.84 26.6996L42.043 25.9033C40.2672 25.3945 38.8613 24.6682 37.8254 23.7245C36.7895 22.7807 36.2716 21.5456 36.2716 20.0193C36.2716 18.7511 36.6156 17.6451 37.3038 16.7013C37.9993 15.7502 38.9316 15.0128 40.1007 14.4893C41.2772 13.9584 42.5906 13.693 44.0409 13.693C45.5059 13.693 46.8082 13.9547 47.9477 14.4783C49.0872 14.9944 49.9899 15.7022 50.6559 16.6018C51.3292 17.5013 51.6844 18.5225 51.7214 19.6654H49.0576Z" fill="#E00914"/>
<path d="M55.3147 16.4359V14.0027H72.3627V16.4359H65.215V36.6537H62.4624V16.4359H55.3147Z" fill="#E00914"/>
<path d="M76.6109 36.6537V14.0027H90.3293V16.4359H79.3634V24.0894H89.6189V26.5227H79.3634V34.2204H90.5069V36.6537H76.6109Z" fill="#E00914"/>
<path d="M107.721 19.6654C107.588 18.5447 107.048 17.6746 106.101 17.0552C105.154 16.4359 103.992 16.1262 102.616 16.1262C101.61 16.1262 100.729 16.2884 99.9743 16.6128C99.227 16.9373 98.6424 17.3834 98.2207 17.9511C97.8063 18.5189 97.5991 19.164 97.5991 19.8866C97.5991 20.4912 97.7434 21.0111 98.032 21.4461C98.3279 21.8737 98.7053 22.2314 99.1641 22.5189C99.6228 22.7991 100.104 23.0314 100.607 23.2157C101.11 23.3927 101.573 23.5364 101.994 23.647L104.303 24.2664C104.895 24.4212 105.553 24.6351 106.279 24.9079C107.011 25.1807 107.71 25.5531 108.376 26.0249C109.05 26.4895 109.605 27.0867 110.041 27.8167C110.478 28.5466 110.696 29.4425 110.696 30.5043C110.696 31.7282 110.374 32.8343 109.73 33.8223C109.094 34.8103 108.162 35.5956 106.933 36.1781C105.712 36.7606 104.229 37.0518 102.483 37.0518C100.855 37.0518 99.4453 36.7901 98.254 36.2666C97.0701 35.743 96.1377 35.0131 95.457 34.0767C94.7837 33.1402 94.4026 32.0527 94.3138 30.8139H97.1552C97.2291 31.6693 97.5177 32.3771 98.0209 32.9375C98.5314 33.4905 99.1752 33.9034 99.9521 34.1762C100.736 34.4416 101.58 34.5744 102.483 34.5744C103.533 34.5744 104.477 34.4048 105.313 34.0656C106.149 33.7191 106.811 33.2398 107.3 32.6278C107.788 32.0084 108.032 31.2858 108.032 30.46C108.032 29.7079 107.821 29.096 107.4 28.6241C106.978 28.1522 106.423 27.7687 105.735 27.4738C105.047 27.1789 104.303 26.9208 103.504 26.6996L100.707 25.9033C98.931 25.3945 97.5251 24.6682 96.4892 23.7245C95.4533 22.7807 94.9353 21.5456 94.9353 20.0193C94.9353 18.7511 95.2794 17.6451 95.9676 16.7013C96.6631 15.7502 97.5954 15.0128 98.7645 14.4893C99.941 13.9584 101.254 13.693 102.705 13.693C104.17 13.693 105.472 13.9547 106.612 14.4783C107.751 14.9944 108.654 15.7022 109.32 16.6018C109.993 17.5013 110.348 18.5225 110.385 19.6654H107.721Z" fill="#E00914"/>
<path d="M113.978 16.4359V14.0027H131.027V16.4359H123.879V36.6537H121.126V16.4359H113.978Z" fill="#E00914"/>
<path d="M0.0555894 38.6949H2.80099V58.7719H10.7715V38.6949H13.5169V58.7719H21.4874V38.6949H24.2328V61.287H0.0555894V38.6949Z" fill="#E00914"/>
<path d="M30.6674 61.287H27.7891L36.1139 38.6949H38.9479L47.2726 61.287H44.3944L37.6194 42.269H37.4423L30.6674 61.287ZM31.7301 52.462H43.3316V54.8889H31.7301V52.462Z" fill="#E00914"/>
<path d="M50.804 38.6949H53.5494V58.7719H61.5199V38.6949H64.2653V58.7719H72.2359V38.6949H74.9813V61.287H50.804V38.6949Z" fill="#E00914"/>
<path d="M78.5376 61.287V58.7719H79.2018C80.1464 58.7719 80.8807 58.4704 81.4047 57.8673C81.9287 57.2643 82.3051 56.2898 82.5339 54.944C82.77 53.5982 82.9287 51.8148 83.0099 49.5938L83.4084 38.6949H97.224V61.287H94.4786V41.1218H86.021L85.6667 50.1233C85.5782 52.4914 85.3605 54.5064 85.0136 56.1685C84.6667 57.8305 84.0579 59.0991 83.187 59.9743C82.3162 60.8494 81.0468 61.287 79.3789 61.287H78.5376Z" fill="#E00914"/>
<path d="M104.746 48.1818H111.211C112.835 48.1818 114.204 48.4466 115.318 48.9761C116.44 49.5056 117.289 50.252 117.864 51.2154C118.447 52.1788 118.739 53.3151 118.739 54.6241C118.739 55.9332 118.447 57.0878 117.864 58.0879C117.289 59.0881 116.44 59.8713 115.318 60.4376C114.204 61.0039 112.835 61.287 111.211 61.287H102.709V38.6949H105.455V58.9043H111.211C112.244 58.9043 113.119 58.6983 113.835 58.2865C114.558 57.8673 115.104 57.3305 115.473 56.6759C115.85 56.014 116.038 55.3154 116.038 54.58C116.038 53.4989 115.621 52.5686 114.787 51.7891C113.953 51.0022 112.761 50.6087 111.211 50.6087H104.746V48.1818ZM123.698 38.6949V61.287H120.953V38.6949H123.698Z" fill="#E00914"/>
<path d="M142.523 61.287L134.73 50.9176H131.94V61.287H129.195V38.6949H131.94V48.4907H133.136L142.213 38.6949H145.49L136.324 48.6231L145.8 61.287H142.523Z" fill="#E00914"/>
<path d="M192.053 16.7825C195.458 15.9865 198.837 15.0616 202.216 14.1858C203.107 13.9665 203.861 14.6232 204.302 15.3289C205.013 16.5028 205.674 17.7095 206.409 18.8711C208.859 17.8468 211.24 16.6667 213.726 15.7141C213.957 17.48 214.009 19.2849 214.586 20.9884C214.792 21.7649 215.162 22.4901 215.34 23.2747C215.464 23.7295 214.948 23.8699 214.62 23.9713C212.895 24.2335 211.15 24.2397 209.415 24.3687C210.443 26.1521 211.502 27.9263 212.608 29.6697C213.43 29.4648 214.258 29.2446 215.097 29.0807C218.354 28.3125 221.928 28.7334 224.8 30.4953C225.375 30.8723 226.024 31.2011 226.425 31.7798C226.32 31.9632 226.174 32.1204 226 32.2398C224.393 33.4014 222.751 34.5148 221.135 35.6652C220.541 36.1302 219.762 35.7 219.094 35.911C218.315 36.121 217.306 36.5932 217.288 37.5254C217.358 38.4084 217.972 39.1151 218.316 39.9029C219.092 41.5418 219.995 43.1173 220.694 44.788C218.697 42.0878 216.839 39.2924 215.118 36.4017C212.155 31.5873 209.323 26.7053 206.38 21.8847C206.156 21.5282 205.947 21.1513 205.884 20.7303C205.741 19.6895 204.984 18.8967 204.526 17.9871C204.03 17.1676 203.532 16.0029 202.401 15.9937C201.03 16.2303 199.744 16.8132 198.419 17.2229C196.478 17.8488 194.578 18.615 192.599 19.1231C192.29 18.3774 191.852 17.6163 192.053 16.7825Z" fill="#FEFEFE"/>
<path d="M157.738 34.8149C157.105 31.8003 156.926 30.7575 156.309 27.7398C162.271 26.5598 168.225 25.2896 174.195 24.1372C174.853 27.1406 175.009 28.1813 175.661 31.1857C169.698 32.4446 163.716 33.6226 157.738 34.8149Z" fill="#FEFEFE"/>
<path d="M201.672 17.8723C201.445 17.3243 202.174 17.3345 202.51 17.2075C203.804 19.3259 205.055 21.476 206.324 23.6117C207.337 25.3777 208.286 27.1764 209.32 28.9301C209.535 29.2702 209.661 29.7342 209.404 30.0907C209.11 30.4277 208.723 30.6622 208.395 30.9603C205.664 33.5048 203.848 37.0173 203.428 40.7254C203.325 42.0314 202.618 43.1705 201.904 44.2307C199.833 47.2484 196.551 49.3667 192.972 50.1299C189.076 50.9626 185.16 51.7268 181.263 52.5309C181.263 55.3069 180.241 58.0818 178.357 60.1387C176.772 61.918 174.592 63.1154 172.292 63.7085C168.557 64.5966 164.439 63.4115 161.691 60.7564C159.5 58.679 158.252 55.7576 157.914 52.789C158.654 52.8442 159.398 52.8373 160.136 52.7686C160.392 55.044 161.405 57.1686 163.015 58.8029C164.859 60.7133 167.538 61.8135 170.21 61.6875C172.66 61.5646 174.961 60.48 176.61 58.6708C178.029 57.1066 178.833 55.059 179.006 52.9683C175.579 53.673 172.15 54.3624 168.726 55.0651C168.583 54.3481 168.429 53.6311 168.285 52.9222C175.957 51.3857 183.614 49.7928 191.285 48.2563C192.151 48.1139 192.947 47.7349 193.742 47.3846C196.55 46.1738 198.996 44.118 200.551 41.4813C201.999 39.0345 203.024 36.3627 203.583 33.5775C204.066 31.0812 203.964 28.5173 203.732 25.9974C203.542 24.467 203.493 22.9244 203.468 21.3879C203.018 20.1443 202.106 19.1169 201.672 17.8723Z" fill="#FEFEFE"/>
<path d="M176.304 26.0998C180.82 25.1758 185.339 24.2621 189.86 23.3586C190.2 24.9453 190.498 26.5423 190.823 28.1331C186.348 29.0642 181.862 29.9493 177.382 30.8578C176.9 29.3008 176.654 27.6854 176.304 26.0998Z" fill="#FEFEFE"/>
<path d="M190.902 36.968C192.341 31.8996 196.568 27.7786 201.614 26.28C202.276 29.7628 202.262 33.4504 200.909 36.7724C199.725 39.8841 197.551 42.5237 194.719 44.2869C193.518 45.0286 192.203 45.5674 190.861 45.9966C190.362 43.0239 190.056 39.9089 190.902 36.968Z" fill="#FEFEFE"/>
<path d="M158.109 36.6383C169.122 34.354 180.154 32.1783 191.166 29.894C191.269 30.3489 191.372 30.8026 191.475 31.2605C189.951 32.7509 188.281 34.2034 187.381 36.1774C186.843 37.341 186.898 38.6716 187.138 39.9019C187.59 42.0796 188.018 44.2615 188.467 46.4382C187.488 46.6728 186.514 46.9401 185.528 47.1419C185.002 45.7488 184.439 44.3557 183.611 43.1091C181.806 40.3321 179.18 38.0529 176.086 36.8155C172.61 35.403 168.637 35.4101 165.087 36.5615C162.776 37.3082 160.667 38.5805 158.828 40.1528C158.58 38.9861 158.328 37.8153 158.109 36.6383Z" fill="#FEFEFE"/>
<path d="M163.376 38.6981C164.881 37.9155 166.563 37.5713 168.227 37.3111C171.863 36.8307 175.697 37.7055 178.666 39.8802C181.011 41.5805 182.819 43.9144 183.875 46.606C184.058 47.0885 184.229 47.5966 184.209 48.12C181.663 48.7151 179.078 49.1556 176.517 49.7016C173.027 50.3869 169.55 51.1357 166.052 51.781C165.149 47.4224 164.276 43.0577 163.376 38.6981Z" fill="#FEFEFE"/>
<path d="M159.155 41.7332C159.977 40.9875 160.827 40.1967 161.892 39.8115C162.678 43.5176 163.425 47.2329 164.188 50.9441C162.561 51.3845 160.865 51.4378 159.193 51.5464C157.609 51.5935 156.006 51.6488 154.435 51.4091C154.735 47.7471 156.492 44.2551 159.155 41.7332Z" fill="#FEFEFE"/>
<path d="M207.923 33.8888C208.605 33.0693 209.541 32.5346 210.287 31.792C210.347 31.8371 210.462 31.9303 210.521 31.9784C213.355 36.4937 215.987 41.1719 219.435 45.2682C220.224 46.3745 221.34 47.2421 221.97 48.4631C221.219 48.3607 220.64 47.8311 220.017 47.4531C217.55 45.8142 215.802 43.3619 214.199 40.9199C211.327 42.8262 208.57 44.9148 205.575 46.6368C204.595 44.2934 204.428 41.691 205.099 39.242C205.644 37.2763 206.607 35.4506 207.923 33.8888Z" fill="#FEFEFE"/>
<path d="M223.367 35.5226C224.077 35.1467 224.632 34.4378 225.415 34.2371C229.088 37.6174 230.041 43.4992 227.797 47.9264C226.255 51.1018 223.047 53.299 219.611 53.9864C217.428 54.3725 215.115 54.1503 213.092 53.2232C210.767 52.2265 208.844 50.3838 207.628 48.1855C207.382 47.7518 207.194 47.288 207.068 46.8057C207.67 46.482 208.271 46.1532 208.902 45.8838C209.99 48.4631 212.18 50.6071 214.885 51.4398C217.455 52.2849 220.391 51.8568 222.642 50.3766C226.368 48.0401 227.761 42.8241 225.901 38.8886C225.326 37.5918 224.412 36.4712 223.367 35.5226Z" fill="white"/>
<path d="M164.997 0.0364171C165.267 0.00448177 165.54 -0.00647198 165.811 0.00364372C165.83 0.288411 165.835 0.573859 165.826 0.859992C165.818 1.91199 165.826 2.96398 165.812 4.01701C165.551 4.00062 165.291 3.97398 165.032 3.95145C164.997 2.64644 165.08 1.33938 164.997 0.0364171Z" fill="white"/>
<path d="M152.483 8.73617C153.883 7.97406 155.281 7.19966 156.727 6.53076C156.905 7.00093 157.189 7.43935 157.626 7.70568C157.112 7.99147 156.517 7.72104 155.982 7.93718C156.216 8.36228 156.773 8.44116 157.015 8.85909C156.295 9.25551 155.443 9.37126 154.764 9.8445C154.215 10.288 154.045 11 153.942 11.6637C153.78 11.3103 153.487 10.9733 153.531 10.5595C153.514 10.1836 153.709 9.85269 153.92 9.55768C153.777 9.50954 153.646 9.43477 153.509 9.37433C153.291 9.43369 153.08 9.51862 152.882 9.62734C152.781 9.317 152.648 9.01825 152.483 8.73617Z" fill="#E00914"/>
<path d="M165.237 7.33405C165.48 7.01957 165.745 6.65491 166.162 6.58116C166.832 6.38858 167.504 6.85977 167.807 7.43135C167.959 7.8284 168.009 8.25681 167.953 8.67798C167.346 7.80217 166.267 7.41087 165.237 7.33405Z" fill="#E00914"/>
<path d="M162.979 7.69855C163.343 7.7777 163.719 7.79019 164.089 7.73542C164.381 7.70264 164.646 7.56231 164.934 7.51929C165.387 7.66836 165.794 7.93323 166.113 8.28754C165.505 8.54875 164.871 8.76181 164.304 9.10702C164.116 9.27376 163.959 9.47081 163.838 9.68986C163.701 9.63494 163.573 9.56077 163.458 9.46962C163.589 8.97794 163.879 8.54772 164.163 8.13798C163.766 8.23324 163.495 8.54772 163.273 8.86936C163.146 8.48319 163.063 8.09087 162.979 7.69855Z" fill="#E00914"/>
<path d="M149.681 11.8655C149.8 11.8 149.92 11.7323 150.035 11.6606C150.484 11.9499 150.868 12.3274 151.166 12.77C151.179 12.8304 151.203 12.9513 151.215 13.0118C150.893 12.8151 150.552 12.5457 150.148 12.6563C149.884 12.6799 149.76 12.937 149.611 13.1173C150.034 13.2545 150.557 13.3221 150.77 13.7708C150.146 14.0945 149.507 14.4212 149.022 14.9355C148.642 15.3001 148.467 15.8205 148.422 16.3347C148.474 16.6994 148.694 17.022 148.706 17.3939C148.44 17.1276 148.226 16.7875 147.864 16.64C147.62 16.5089 147.333 16.5478 147.071 16.5887L147.047 16.4443C147.174 16.2103 147.267 15.9587 147.32 15.6976C147.349 15.4425 147.235 15.2018 147.132 14.9805C146.823 15.2049 146.704 15.5654 146.598 15.9106C146.403 15.7058 146.118 15.5593 145.998 15.296C146.159 14.8863 146.429 14.5339 146.54 14.1068L146.691 14.0043C146.961 14.0207 147.235 14.0166 147.506 14.0474L147.564 13.9449C147.596 13.6565 147.716 13.3849 147.908 13.1664C148.408 12.6209 149.01 12.1788 149.681 11.8655Z" fill="#E00914"/>
<path d="M172.521 6.62998C173.549 6.59208 174.648 6.62179 175.556 7.15957C175.791 7.30164 175.989 7.49631 176.134 7.72807C176.436 7.58876 176.716 7.40541 177.015 7.25893C177.4 7.5885 177.803 7.89628 178.223 8.18084C178.085 8.4359 178.035 8.76267 177.83 8.96651C177.606 8.75798 177.366 8.56817 177.111 8.39902C176.963 8.79339 177.145 9.26253 177.476 9.50735C177.596 9.60979 177.784 9.67944 177.793 9.86895C177.478 9.97138 177.138 10.0431 176.919 10.3166C176.786 10.595 176.674 10.883 176.583 11.1781L176.481 11.217C176.455 10.7734 176.565 10.2951 176.262 9.91197C176.05 9.68867 175.838 9.45922 175.566 9.31171C174.895 8.945 174.12 8.88251 173.377 8.78622C173.251 8.76062 173.122 8.73807 172.997 8.71349C172.997 8.24229 173.511 8.04972 173.716 7.67993C173.317 7.47506 172.749 7.49452 172.457 7.86943C172.311 8.03435 172.276 8.37546 171.986 8.30785C172.107 7.73627 172.344 7.19234 172.521 6.62998Z" fill="#E00914"/>
<path d="M156.238 12.0661C156.587 11.6431 156.816 11.093 157.315 10.8154C157.786 10.5962 158.306 10.7765 158.773 10.9179C158.303 11.3348 157.771 11.6718 157.264 12.0446C156.793 12.3888 156.701 13.0413 156.191 13.3537L155.811 13.4367C155.604 13.4005 155.409 13.3136 155.244 13.1837C155.223 13.0475 155.207 12.9133 155.191 12.774C155.539 12.5455 155.966 12.4021 156.238 12.0661Z" fill="#E00914"/>
<path d="M163.344 12.2014C163.168 10.9251 164.123 9.60877 165.4 9.38956C166.15 9.34641 166.897 9.51092 167.559 9.86485C167.605 9.88009 167.647 9.90668 167.68 9.94217C167.714 9.97765 167.738 10.0209 167.75 10.068C167.762 10.1151 167.763 10.1645 167.751 10.2116C167.739 10.2588 167.715 10.3023 167.682 10.3381C167.435 10.6454 167.006 10.4743 166.674 10.5624C166.111 10.6157 165.707 11.0326 165.254 11.3184C164.673 11.7261 163.969 11.8756 163.344 12.2014Z" fill="#E00914"/>
<path d="M156.857 13.2095C157.252 12.5714 157.908 12.0121 158.697 12.0162C159.52 12.008 160.226 12.6861 160.385 13.4677C159.974 13.2741 159.511 13.1225 159.049 13.2044C158.285 13.2895 157.694 13.8283 157.167 14.3373C156.605 14.8966 156.122 15.6403 156.206 16.4649C155.863 15.9353 155.609 15.2695 155.842 14.6457C155.996 14.0516 156.557 13.7166 156.857 13.2095Z" fill="#E00914"/>
<path d="M166.055 11.1954C166.458 11.0417 166.908 10.9157 167.332 11.0602C167.89 11.2261 168.424 11.5939 168.648 12.147C168.801 12.5567 168.728 13.0054 168.733 13.4346C168.508 13.0894 168.313 12.7104 167.99 12.442C167.793 12.3014 167.587 12.1724 167.374 12.0558C167.092 11.9534 166.757 11.851 166.49 12.0333C166.322 12.1941 166.259 12.4256 166.181 12.6356C164.907 12.609 163.92 13.747 163.685 14.9199C163.449 14.715 163.608 14.3801 163.474 14.1301C163.281 13.742 162.984 13.4152 162.615 13.1867C163.209 12.5721 164.048 12.2648 164.871 12.0948C165.408 12.0159 165.678 11.5109 166.055 11.1954Z" fill="#E00914"/>
<path d="M158.338 14.3057C158.902 13.8222 159.696 13.7935 160.394 13.896C160.688 13.8396 160.98 13.7741 161.271 13.7085C161.085 13.9981 160.922 14.3015 160.784 14.6161C160.886 14.8926 160.94 15.1825 160.776 15.4468C160.413 15.1508 159.989 14.908 159.516 14.8486C159.141 14.7851 158.772 14.9131 158.422 15.0309C158.238 15.1497 158.053 15.2655 157.861 15.3659C157.749 14.9521 158.045 14.5659 158.338 14.3057Z" fill="#E00914"/>
<path d="M167.271 13.4955C167.24 13.411 167.235 13.3191 167.257 13.2317C167.279 13.1444 167.327 13.0657 167.394 13.0059C167.729 13.0445 168.038 13.2075 168.258 13.4624C168.478 13.7173 168.594 14.0454 168.582 14.3816C168.165 14.0586 167.726 13.7627 167.271 13.4955Z" fill="#E00914"/>
<path d="M158.726 15.5902C159.057 15.4877 159.41 15.3689 159.754 15.4611C160.03 15.5154 160.268 15.6803 160.508 15.8114L160.414 15.9405C160.087 16.2243 159.677 16.3564 159.255 16.4199C159.815 16.7794 160.508 16.4957 161.105 16.7026C161.737 16.8686 162.188 17.432 162.315 18.0568C161.823 17.6952 161.185 17.4002 160.568 17.5866C159.505 17.8939 158.726 18.8886 158.543 19.9569L158.509 19.8299L158.44 19.8412C158.14 19.54 157.893 19.0791 158.083 18.6571C158.256 18.1807 158.724 17.9226 158.992 17.5118C158.786 17.4883 158.591 17.4811 158.392 17.4688C157.997 17.5334 157.601 17.6143 157.2 17.5979C157.475 16.9362 158.155 16.6145 158.568 16.0614C158.677 15.9262 158.684 15.7469 158.726 15.5902Z" fill="#E00914"/>
<path d="M173.307 15.974C173.034 15.721 172.563 15.4362 172.763 15.0009C173.791 14.7663 174.921 15.638 174.86 16.7125C174.86 16.7822 174.86 16.9174 174.855 16.9912C174.255 16.7935 173.759 16.3991 173.307 15.974Z" fill="#E00914"/>
<path d="M164.174 18.1797C164.364 17.739 164.708 17.3818 165.142 17.1738C165.448 17.0838 165.771 17.0726 166.083 17.1412C166.394 17.2099 166.682 17.3561 166.922 17.5662C167.355 17.9431 167.68 18.4235 168 18.8978C168.034 19.0084 168.067 19.118 168.103 19.2297C167.984 19.1611 167.864 19.0955 167.743 19.032C167.358 18.8394 167.011 18.5844 166.641 18.3672C166.58 18.4696 166.52 18.5721 166.46 18.6745C166.46 19.0525 166.76 19.3301 167.103 19.4305C167.617 19.6189 168.175 19.6353 168.704 19.7716C168.343 20.1738 167.837 20.4187 167.297 20.4538C166.692 20.4838 166.086 20.437 165.493 20.3145C165.501 20.2848 165.516 20.2264 165.524 20.1977C165.761 19.8853 165.909 19.4182 165.653 19.0709C165.332 18.5506 164.748 18.2894 164.174 18.1797Z" fill="#E00914"/>
<path d="M159.858 18.7716C160.138 18.4711 160.508 18.2686 160.912 18.1939C161.119 18.159 161.332 18.1809 161.527 18.2572C161.722 18.3336 161.893 18.4614 162.021 18.6272C161.74 18.7532 161.494 18.9478 161.308 19.193C161.122 19.4382 161 19.7262 160.954 20.0305C160.955 20.1255 160.981 20.2186 161.028 20.3012C161.075 20.3838 161.142 20.4532 161.224 20.5027C161.459 20.5447 161.687 20.4269 161.917 20.388C162.06 20.767 161.784 21.1306 161.505 21.356C160.943 21.7801 160.195 22.1089 159.492 21.8508C159.893 21.5035 160.264 21.0538 160.32 20.5089C160.347 20.2559 160.229 20.0213 160.141 19.7918C160.141 19.8297 160.133 19.9076 160.13 19.9455H160.06C159.911 20.305 159.687 20.6308 159.577 21.0067L159.456 20.9995C159.199 20.7619 159.332 20.432 159.353 20.134C159.464 19.6638 159.506 19.1342 159.858 18.7716Z" fill="#E00914"/>
<path d="M155.209 20.9453C155.804 20.4239 156.462 19.9414 157.231 19.7161C157.864 19.9394 158.184 20.6298 158.134 21.2669C158.019 21.8651 157.51 22.2585 157.247 22.7829C157.124 22.9294 157.321 23.0564 157.391 23.1691C157.681 22.8701 158.01 22.6098 158.367 22.3947C158.659 22.2915 158.958 22.212 159.263 22.1571C159.561 22.1028 159.836 22.2595 160.092 22.3875C160.103 22.4316 160.123 22.5166 160.132 22.5596L160.029 22.4961C159.252 22.4779 158.496 22.7531 157.914 23.2664C157.348 23.6997 157.005 24.3512 156.766 25.0078C156.831 25.1318 156.901 25.2567 156.971 25.3807C157.14 25.3254 157.302 25.2504 157.453 25.1574C157.614 25.0324 157.64 24.8204 157.702 24.6452C157.79 24.3061 158.024 24.0378 158.235 23.7673C158.401 23.6178 158.572 23.4713 158.749 23.3361C159.012 23.1862 159.297 23.0787 159.594 23.0175C159.285 23.5666 158.918 24.0818 158.632 24.6421C158.437 25.0191 158.118 25.3038 157.789 25.564C157.372 25.8006 156.88 25.9912 156.397 25.8713C156.131 25.7627 155.859 25.606 155.725 25.3428C155.555 24.9197 155.809 24.5038 155.923 24.1033C155.769 24.0275 155.499 24.0521 155.489 23.8267C155.443 23.6237 155.439 23.4135 155.475 23.2086C155.512 23.0037 155.589 22.8082 155.703 22.6334C156.051 22.0464 156.628 21.6439 157.022 21.0969C157.009 21.0518 156.984 20.9606 156.97 20.9156C156.114 21.1839 155.303 21.7668 154.942 22.6088C154.827 22.8782 154.746 23.1611 154.703 23.4508C154.374 23.2034 154.07 22.9256 153.795 22.6211C154.19 22.0029 154.666 21.4394 155.209 20.9453Z" fill="#E00914"/>
<path d="M169.795 18.8965C169.275 18.3843 169.186 17.4706 169.666 16.898C169.945 16.8325 170.234 16.898 170.518 16.9052C171.674 17.0221 172.801 17.3375 173.85 17.8373C173.942 17.906 174.128 17.9398 174.116 18.0904C174.046 18.4243 173.91 18.7398 173.813 19.0666L173.71 19.0604C172.932 18.1201 171.626 17.7472 170.441 17.8312C170.544 18.0555 170.801 18.1108 171.012 18.1938C171.586 18.3987 172.202 18.5554 172.679 18.9529C172.996 19.2182 173.139 19.6197 173.314 19.9772C173.227 20.0796 173.136 20.1769 173.046 20.2732C173.438 20.518 173.75 20.9227 173.721 21.4082C173.618 21.9019 173.156 22.2512 172.678 22.3567C172.106 22.45 171.52 22.3284 171.033 22.0156C170.452 21.6274 169.815 21.3221 169.27 20.8817C169.995 20.6983 170.817 20.8264 171.406 21.2996C171.592 21.4451 171.743 21.6366 171.949 21.7595C172.179 21.862 172.44 21.8302 172.685 21.8067C172.662 21.6131 172.653 21.3969 172.484 21.2658C171.769 20.6313 170.84 20.2879 169.883 20.304C169.391 20.3306 168.929 20.5027 168.459 20.6276C168.845 20.0858 169.528 19.8594 170.175 19.8686C170.543 19.9137 170.908 19.9874 171.279 20.0171C171.251 19.9147 171.225 19.8123 171.198 19.7098C170.757 19.3943 170.199 19.2714 169.795 18.8965Z" fill="#E00914"/>
<path d="M169.963 21.9204C170.194 21.9952 170.425 22.073 170.656 22.1519C170.223 23.6536 169.67 25.1225 169.217 26.6139C169.136 26.7891 169.137 27.0431 168.961 27.1517C168.755 27.0821 168.44 27.078 168.358 26.8577C168.876 25.2075 169.396 23.5553 169.963 21.9204Z" fill="white"/>
<path d="M152.374 3.77953C152.596 3.65559 152.831 3.55566 153.074 3.48145C153.588 4.62051 154.184 5.72373 154.719 6.86177C154.494 6.96421 154.275 7.07995 154.046 7.17521C153.663 6.53193 153.383 5.8364 153.047 5.16853C152.819 4.70246 152.568 4.2538 152.374 3.77953Z" fill="#FEFEFE"/>
<path d="M150.417 14.2638C150.868 14.0102 151.358 13.8339 151.868 13.7424C152.044 14.1163 152.326 14.4339 152.473 14.8231C152.145 15.0024 151.808 14.7832 151.467 14.8231C150.972 14.8528 150.509 15.0648 150.095 15.322C149.822 15.5282 149.597 15.7912 149.436 16.0928C149.275 16.3944 149.181 16.7273 149.162 17.0685L149 16.9537C148.864 16.7069 148.724 16.4293 148.801 16.1414C148.961 15.2769 149.68 14.6592 150.417 14.2638Z" fill="#E00914"/>
<path d="M150.802 16.3837C151.673 15.7045 152.789 15.387 153.886 15.3706C154.25 15.581 154.574 15.8524 154.846 16.1727C153.838 16.0026 152.825 16.3386 151.999 16.9071C151.169 17.5023 150.417 18.3648 150.332 19.4219C150.02 19.1209 149.744 18.785 149.51 18.4211C149.698 17.6897 150.06 16.9983 150.653 16.5127L150.802 16.3837Z" fill="#E00914"/>
<path d="M170.935 11.6146C171.884 11.1977 172.951 10.9529 173.984 11.1547C174.89 11.3083 175.718 11.8236 176.33 12.4863C176.279 12.9401 176.082 13.3714 175.989 13.818C175.305 12.6646 173.925 12.1217 172.627 12.1073C171.821 12.0633 171.033 12.3317 170.365 12.7711L170.447 12.4638C170.588 12.178 170.689 11.8431 170.935 11.6146Z" fill="#E00914"/>
<path d="M161.726 22.0897C161.903 21.9955 162.089 21.916 162.28 21.8521C162.463 22.3407 162.731 22.7893 162.945 23.2646C163.664 24.8339 164.431 26.3858 165.174 27.9469C164.963 27.9971 164.752 28.0432 164.541 28.0872C163.513 26.1317 162.632 24.1046 161.726 22.0897Z" fill="#FEFEFE"/>
<path d="M163.017 4.74953C163.816 4.67168 164.622 4.72392 165.425 4.73416C166.228 4.77002 167.034 4.77411 167.833 4.87142C167.858 5.22765 167.865 5.58492 167.854 5.94187C167.285 5.90601 166.723 6.06376 166.181 6.20512C165.676 6.33111 165.267 6.66607 164.851 6.96006C164.414 7.19436 163.93 7.32971 163.434 7.35648C163.507 6.82996 163.695 6.33214 163.852 5.82817C163.544 5.82817 163.229 5.83431 162.919 5.82817C162.972 5.46862 162.996 5.10805 163.017 4.74953Z" fill="#E00914"/>
<path d="M176.08 5.08341C176.353 4.25779 176.625 3.43012 176.93 2.61475C177.16 2.71001 177.392 2.7981 177.622 2.89439C177.552 3.09209 177.489 3.29183 177.417 3.48953C177.042 4.6163 176.683 5.74307 176.286 6.85551C176.058 6.77254 175.834 6.68138 175.607 6.59636C175.738 6.084 175.896 5.57896 176.08 5.08341Z" fill="white"/>
<path d="M144.374 10.3073C144.556 10.125 144.733 9.93854 144.923 9.7644C145.664 10.5419 146.398 11.3255 147.151 12.0938C147.356 12.3089 147.536 12.5465 147.785 12.7084C147.554 12.8262 147.398 13.0361 147.209 13.2052C146.263 12.2382 145.281 11.3101 144.374 10.3073Z" fill="white"/>
<path d="M154.037 12.0335C154.289 11.405 154.673 10.8371 155.162 10.3673C155.651 9.89759 156.235 9.53677 156.874 9.30875C157.305 9.18993 157.759 9.05881 158.211 9.16637C158.326 9.56688 158.348 9.98584 158.441 10.3956C158.375 10.371 158.311 10.3454 158.249 10.3167C156.872 9.90696 155.29 10.7613 154.815 12.098C154.747 12.3906 154.713 12.6899 154.712 12.9902C154.496 12.6553 154.256 12.349 154.037 12.0335Z" fill="#E00914"/>
<path d="M172.111 9.1163C172.873 9.06201 173.653 8.99338 174.399 9.21873C175.029 9.4236 175.71 9.71451 176.051 10.3158C176.221 10.5524 176.084 10.8464 176.051 11.1015C175.777 10.8372 175.571 10.4981 175.235 10.3035C174.609 9.8784 173.807 9.80978 173.076 9.93475C172.715 10.0474 172.331 10.1714 172.091 10.4807L171.812 10.4336C171.892 9.99313 171.994 9.55369 172.111 9.1163Z" fill="#E00914"/>
<path d="M171.377 13.1142C171.856 12.9137 172.373 12.8172 172.892 12.8312C173.412 12.8451 173.922 12.9692 174.39 13.1951C175.007 13.487 175.503 14.117 175.508 14.8125C175.476 15.0593 175.42 15.3025 175.341 15.5388C174.788 14.7654 173.868 14.3311 172.933 14.2512C172.831 14.2512 172.728 14.2389 172.631 14.2307C171.844 14.201 171.02 14.453 170.514 15.0819C170.411 14.708 170.299 14.2993 170.472 13.9275C170.614 13.5167 171.013 13.3016 171.377 13.1142Z" fill="#E00914"/>
<path d="M152.01 17.7318C152.4 17.4058 152.855 17.1675 153.346 17.0332C153.836 16.8988 154.35 16.8716 154.852 16.9533C155.184 17.026 155.442 17.2708 155.637 17.5372C155.714 17.7969 155.775 18.0614 155.818 18.329C155.298 18.1052 154.717 18.0602 154.168 18.2009C152.993 18.6025 151.828 19.4967 151.637 20.7925C151.373 20.5262 151.077 20.2373 151.036 19.845C150.874 19.0184 151.404 18.2419 152.01 17.7318Z" fill="#E00914"/>
<path d="M153.586 19.1466C153.698 19.08 153.805 19.1999 153.912 19.2214C154.132 20.0552 153.353 20.6791 153.247 21.4586C152.992 21.5919 152.751 21.7497 152.527 21.9298C152.507 21.3817 152.296 20.8143 152.517 20.2806C152.679 19.7582 153.141 19.4283 153.586 19.1466Z" fill="#E00914"/>
<path d="M171.516 15.082C171.714 15.0303 171.923 15.0303 172.121 15.082C172.206 15.4497 172.234 15.8564 172.506 16.1483C172.823 16.6062 173.396 16.7199 173.868 16.9555C173.856 17.0662 173.844 17.1768 173.833 17.2895C173.135 17.0918 172.427 16.9023 171.777 16.5632C171.521 16.4393 171.283 16.2764 171.012 16.1862C170.693 16.0838 170.352 16.0838 170.028 16.0019C170.393 15.9202 170.747 15.7993 171.085 15.6413C171.26 15.4814 171.406 15.2921 171.516 15.082Z" fill="#E00914"/>
<path d="M154.396 18.9561C154.602 18.912 154.821 18.8383 155.035 18.9048C155.461 19.0175 155.905 19.1159 156.349 19.0349C155.842 19.4621 155.366 19.9333 155.021 20.5018C154.651 20.9443 154.28 21.4032 153.819 21.7535C153.789 21.6511 153.761 21.5487 153.733 21.4462C154.056 20.9894 154.522 20.6063 154.621 20.0245C154.572 19.6634 154.497 19.3063 154.396 18.9561Z" fill="#E00914"/>
<path d="M161.667 19.9332C161.694 19.68 161.805 19.4429 161.981 19.2589C162.158 19.0749 162.391 18.9544 162.644 18.916C162.664 19.1031 162.645 19.2923 162.59 19.4722C162.535 19.6521 162.443 19.819 162.322 19.9629C162.103 19.9668 161.884 19.9569 161.667 19.9332Z" fill="#E00914"/>
<path d="M162.839 20.2703C163.207 20.0173 163.673 19.9979 164.099 19.9128C164.311 20.0473 164.505 20.2069 164.679 20.3881C164.546 20.4391 164.42 20.508 164.306 20.593C163.722 20.4998 163.166 20.7979 162.649 21.0273L162.494 20.9556C162.558 20.7087 162.61 20.423 162.839 20.2703Z" fill="#E00914"/>
<path d="M165.129 21.0137C165.447 21.0311 165.849 20.9215 166.055 21.2319C165.91 21.617 165.902 22.0329 165.838 22.4355C165.722 23.2375 165.741 24.0531 165.894 24.8488C165.91 25.5433 165.738 26.2266 165.737 26.9231C165.521 26.7603 165.313 26.5882 165.102 26.4222C164.918 25.7943 164.999 25.1336 164.983 24.4893C165.048 23.3318 165.087 22.1743 165.129 21.0137Z" fill="white"/>
<path d="M155.474 11.8564C155.619 11.3115 156.193 10.8321 156.786 10.9243C156.347 11.2326 155.945 11.5993 155.474 11.8564Z" fill="#E00914"/>
<path d="M165.867 9.1335C166.231 8.80776 166.673 8.56295 167.171 8.5271L167.414 8.59266C167.433 8.62851 167.473 8.69509 167.491 8.73504C167.398 8.91262 167.316 9.09641 167.248 9.28511C167.145 9.27282 167.051 9.26258 166.956 9.24619C166.704 9.18282 166.447 9.14573 166.188 9.13555C166.079 9.13658 165.973 9.13862 165.867 9.1335Z" fill="#E00914"/>
<path d="M150.004 16.5222C149.944 16.0285 150.352 15.6628 150.763 15.4784C151.071 15.3126 151.424 15.2484 151.771 15.2951C151.335 15.4982 150.93 15.764 150.571 16.0838C150.4 16.2446 150.234 16.4382 150.004 16.5222Z" fill="#E00914"/>
<path d="M166.351 14.8065C166.691 14.618 167.027 14.3968 167.423 14.3435C167.817 14.4729 168.169 14.7057 168.441 15.0175C167.834 15.1128 167.294 15.417 166.81 15.7796C167.294 16.0173 167.822 16.2764 168.116 16.7476C168.297 17.0078 168.203 17.3325 168.185 17.6224L168.061 17.6091C167.371 16.9648 166.5 16.4198 165.534 16.3635C165.139 16.3635 164.712 16.4444 164.416 16.7159C164.108 16.9576 163.945 17.3182 163.726 17.6306C163.599 17.3735 163.483 17.0898 163.58 16.803C163.7 16.1771 164.234 15.7591 164.778 15.4949C165.31 15.2849 165.853 15.0913 166.351 14.8065Z" fill="#E00914"/>
<path d="M163.577 18.7263C164.174 18.4836 164.774 18.9097 165.136 19.3563C165.082 19.4864 164.944 19.639 164.793 19.5509C164.559 19.3835 164.282 19.2852 163.995 19.2672C163.864 19.0808 163.721 18.9025 163.577 18.7263Z" fill="#E00914"/>
<path d="M172.741 10.4969C173.004 10.3996 173.277 10.3309 173.554 10.292C174.083 10.3227 174.845 10.3944 174.98 11.0244C174.329 10.84 173.693 10.5757 173.009 10.5522L172.741 10.4969Z" fill="#E00914"/>
<path d="M164.078 14.8483C164.388 14.1849 164.944 13.667 165.629 13.4029C165.999 13.2513 166.532 13.4705 166.554 13.9008C166.513 14.12 166.29 14.2439 166.15 14.4017C165.552 14.8175 164.792 14.9425 164.078 14.8483Z" fill="#E00914"/>
<path d="M156.586 16.6295C156.662 16.2546 156.939 15.9688 157.21 15.7158C157.311 15.8075 157.406 15.905 157.495 16.0078C157.29 16.5261 156.999 17.0096 156.81 17.5381C156.702 17.2482 156.489 16.9502 156.586 16.6295Z" fill="#E00914"/>
<path d="M159.006 24.6844C159.175 24.4949 159.353 24.3115 159.534 24.1333C160.418 25.0955 161.302 26.0567 162.186 27.0168C162.49 27.3723 162.828 27.698 163.102 28.078C162.928 28.2074 162.746 28.3271 162.558 28.4366C161.345 27.2135 160.195 25.93 159.006 24.6844Z" fill="#FCFDFD"/>
</svg>
