<svg width="30" height="30" viewBox="0 0 30 30" fill="none" xmlns="http://www.w3.org/2000/svg">
<path fill-rule="evenodd" clip-rule="evenodd" d="M0 15C0 6.71573 6.71573 0 15 0C23.2843 0 30 6.71573 30 15C30 23.2843 23.2843 30 15 30C6.71573 30 0 23.2843 0 15ZM15.7847 19.9225C15.7847 19.9225 16.0734 19.891 16.2213 19.7351C16.3567 19.5922 16.352 19.3226 16.352 19.3226C16.352 19.3226 16.334 18.0636 16.9296 17.8777C17.5165 17.6949 18.2701 19.0952 19.0699 19.6337C19.674 20.0408 20.1326 19.9517 20.1326 19.9517L22.2698 19.9225C22.2698 19.9225 23.3873 19.8549 22.8575 18.9923C22.8136 18.9216 22.5483 18.3539 21.2689 17.1879C19.9283 15.9673 20.1083 16.1647 21.722 14.053C22.7049 12.7671 23.0977 11.9821 22.9748 11.6464C22.8582 11.3253 22.1352 11.4106 22.1352 11.4106L19.7296 11.4252C19.7296 11.4252 19.5511 11.4013 19.4189 11.4789C19.2898 11.555 19.206 11.7324 19.206 11.7324C19.206 11.7324 18.8257 12.7272 18.3178 13.5737C17.2465 15.3589 16.8184 15.4534 16.6431 15.3428C16.2354 15.0839 16.3372 14.3042 16.3372 13.7504C16.3372 12.0197 16.6048 11.2984 15.8168 11.1117C15.5554 11.0495 15.3629 11.0088 14.6938 11.0019C13.8353 10.9934 13.1091 11.005 12.6975 11.2024C12.4236 11.3337 12.2123 11.6272 12.3414 11.6441C12.5003 11.6648 12.8602 11.7393 13.0512 11.9944C13.2977 12.3239 13.2891 13.0629 13.2891 13.0629C13.2891 13.0629 13.4307 15.1 12.9581 15.3528C12.6341 15.5264 12.1896 15.1722 11.2341 13.5522C10.745 12.7226 10.3756 11.8054 10.3756 11.8054C10.3756 11.8054 10.3044 11.6341 10.1768 11.5419C10.0227 11.4305 9.80748 11.396 9.80748 11.396L7.52162 11.4106C7.52162 11.4106 7.17807 11.4198 7.05208 11.5665C6.94018 11.6963 7.04347 11.9659 7.04347 11.9659C7.04347 11.9659 8.83319 16.0764 10.86 18.1481C12.7186 20.047 14.8284 19.9225 14.8284 19.9225H15.7847Z" fill="white"/>
</svg>
