<?xml version="1.0" encoding="UTF-8"?>
<svg xmlns="http://www.w3.org/2000/svg" xmlns:xlink="http://www.w3.org/1999/xlink" width="32px" height="32px" viewBox="0 0 32 32" version="1.1">
<g id="surface1">
<path style="fill:none;stroke-width:1.5;stroke-linecap:round;stroke-linejoin:miter;stroke:rgb(100%,100%,100%);stroke-opacity:1;stroke-miterlimit:4;" d="M 14.361328 4.078125 L 15.287109 3.152344 C 16.822266 1.617187 19.3125 1.617187 20.847656 3.152344 C 22.382812 4.6875 22.382812 7.177734 20.847656 8.712891 L 19.921875 9.638672 M 14.361328 4.078125 C 14.361328 4.078125 14.475586 6.046875 16.212891 7.787109 C 17.953125 9.524414 19.921875 9.638672 19.921875 9.638672 M 14.361328 4.078125 L 12 6.439453 M 19.921875 9.638672 L 11.399414 18.161133 C 10.822266 18.738281 10.535156 19.02832 10.21582 19.274414 C 9.84082 19.567383 9.433594 19.819336 9.005859 20.024414 C 8.639648 20.197266 8.25293 20.326172 7.479492 20.583984 L 4.198242 21.676758 M 4.198242 21.676758 L 3.395508 21.946289 C 3.014648 22.072266 2.595703 21.972656 2.311523 21.688477 C 2.027344 21.404297 1.927734 20.985352 2.053711 20.604492 L 2.323242 19.801758 M 4.198242 21.676758 L 2.323242 19.801758 M 2.323242 19.801758 L 3.416016 16.520508 C 3.673828 15.74707 3.802734 15.360352 3.975586 14.994141 C 4.180664 14.566406 4.432617 14.15918 4.725586 13.78418 C 4.97168 13.464844 5.261719 13.177734 5.838867 12.600586 L 8.499023 9.9375 " transform="matrix(1.333333,0,0,1.333333,0,0)"/>
</g>
</svg>
