<?xml version="1.0" encoding="UTF-8"?>
<svg xmlns="http://www.w3.org/2000/svg" xmlns:xlink="http://www.w3.org/1999/xlink" width="32px" height="32px" viewBox="0 0 32 32" version="1.1">
<g id="surface1">
<path style=" stroke:none;fill-rule:nonzero;fill:rgb(100%,100%,100%);fill-opacity:1;" d="M 12 21.332031 C 12 22.070312 11.402344 22.667969 10.667969 22.667969 C 9.929688 22.667969 9.332031 22.070312 9.332031 21.332031 C 9.332031 20.597656 9.929688 20 10.667969 20 C 11.402344 20 12 20.597656 12 21.332031 Z M 12 21.332031 "/>
<path style=" stroke:none;fill-rule:nonzero;fill:rgb(100%,100%,100%);fill-opacity:1;" d="M 17.332031 21.332031 C 17.332031 22.070312 16.738281 22.667969 16 22.667969 C 15.261719 22.667969 14.667969 22.070312 14.667969 21.332031 C 14.667969 20.597656 15.261719 20 16 20 C 16.738281 20 17.332031 20.597656 17.332031 21.332031 Z M 17.332031 21.332031 "/>
<path style=" stroke:none;fill-rule:nonzero;fill:rgb(100%,100%,100%);fill-opacity:1;" d="M 22.667969 21.332031 C 22.667969 22.070312 22.070312 22.667969 21.332031 22.667969 C 20.597656 22.667969 20 22.070312 20 21.332031 C 20 20.597656 20.597656 20 21.332031 20 C 22.070312 20 22.667969 20.597656 22.667969 21.332031 Z M 22.667969 21.332031 "/>
<path style="fill:none;stroke-width:1.5;stroke-linecap:round;stroke-linejoin:miter;stroke:rgb(100%,100%,100%);stroke-opacity:1;stroke-miterlimit:4;" d="M 6 9.999023 L 6 8.000977 C 6 7.658203 6.029297 7.324219 6.082031 6.999023 M 18 9.999023 L 18 8.000977 C 18 4.6875 15.313477 2.000977 12 2.000977 C 10.207031 2.000977 8.598633 2.786133 7.5 4.03125 " transform="matrix(1.333333,0,0,1.333333,0,0)"/>
<path style="fill:none;stroke-width:1.5;stroke-linecap:round;stroke-linejoin:miter;stroke:rgb(100%,100%,100%);stroke-opacity:1;stroke-miterlimit:4;" d="M 11.000977 21.999023 L 8.000977 21.999023 C 5.170898 21.999023 3.758789 21.999023 2.879883 21.120117 C 2.000977 20.241211 2.000977 18.829102 2.000977 15.999023 C 2.000977 13.171875 2.000977 11.756836 2.879883 10.87793 C 3.758789 9.999023 5.170898 9.999023 8.000977 9.999023 L 15.999023 9.999023 C 18.829102 9.999023 20.241211 9.999023 21.120117 10.87793 C 21.999023 11.756836 21.999023 13.171875 21.999023 15.999023 C 21.999023 18.829102 21.999023 20.241211 21.120117 21.120117 C 20.241211 21.999023 18.829102 21.999023 15.999023 21.999023 L 15 21.999023 " transform="matrix(1.333333,0,0,1.333333,0,0)"/>
</g>
</svg>
