<svg width="30" height="32" viewBox="0 0 30 32" fill="none" xmlns="http://www.w3.org/2000/svg">
<path d="M21.7538 31.9997C23.1339 31.9997 24.2528 30.8198 24.2528 29.3643C24.2528 27.9089 23.1339 26.729 21.7538 26.729C20.3737 26.729 19.2549 27.9089 19.2549 29.3643C19.2549 30.8198 20.3737 31.9997 21.7538 31.9997Z" fill="white"/>
<path d="M10.328 31.9997C11.7082 31.9997 12.827 30.8198 12.827 29.3643C12.827 27.9089 11.7082 26.729 10.328 26.729C8.94791 26.729 7.8291 27.9089 7.8291 29.3643C7.8291 30.8198 8.94791 31.9997 10.328 31.9997Z" fill="white"/>
<path d="M5.45939 4.05087L5.1738 7.74032C5.11668 8.44809 5.64503 9.03539 6.31617 9.03539H28.1783C28.778 9.03539 29.2778 8.5535 29.3206 7.92103C29.5063 5.25559 27.5785 3.08709 25.051 3.08709H7.50138C7.35858 2.4245 7.07299 1.79202 6.63032 1.26495C5.91634 0.466828 4.91677 0 3.88863 0H1.40398C0.818515 0 0.333008 0.512006 0.333008 1.12942C0.333008 1.74684 0.818515 2.25885 1.40398 2.25885H3.88863C4.3313 2.25885 4.74541 2.45461 5.04528 2.78591C5.34516 3.13227 5.48795 3.58404 5.45939 4.05087Z" fill="white"/>
<path d="M27.8375 11.2944H5.93251C5.33277 11.2944 4.84726 11.7763 4.79014 12.3937L4.27607 18.9444C4.07616 21.5195 5.98963 23.7181 8.43145 23.7181H24.3104C26.4523 23.7181 28.3372 21.8658 28.4943 19.607L28.9655 12.5744C29.0227 11.8817 28.5086 11.2944 27.8375 11.2944Z" fill="white"/>
</svg>
